<svg width="607.999756" height="439.432007" viewBox="0 0 608 439.432" fill="none" xmlns="http://www.w3.org/2000/svg" xmlns:xlink="http://www.w3.org/1999/xlink">
	<desc>
			Created with Pixso.
	</desc>
	<defs>
		<filter id="filter_2_246_dd" x="0.000000" y="0.000000" width="607.999756" height="439.432007" filterUnits="userSpaceOnUse" color-interpolation-filters="sRGB">
			<feFlood flood-opacity="0" result="BackgroundImageFix"/>
			<feColorMatrix in="SourceAlpha" type="matrix" values="0 0 0 0 0 0 0 0 0 0 0 0 0 0 0 0 0 0 127 0" result="hardAlpha"/>
			<feOffset dx="0" dy="4"/>
			<feGaussianBlur stdDeviation="1.33333"/>
			<feComposite in2="hardAlpha" operator="out" k2="-1" k3="1"/>
			<feColorMatrix type="matrix" values="0 0 0 0 0 0 0 0 0 0 0 0 0 0 0 0 0 0 0.25 0"/>
			<feBlend mode="normal" in2="BackgroundImageFix" result="effect_dropShadow_1"/>
			<feBlend mode="normal" in="SourceGraphic" in2="effect_dropShadow_1" result="shape"/>
		</filter>
	</defs>
	<g filter="url(#filter_2_246_dd)">
		<path d="M593.34 308.41C591.29 309.28 589.36 310.84 588.62 312.31C587.77 313.46 587.58 315.21 588.12 316.55C588.41 317.28 589.04 318.2 590.35 318.41C592.6 318.86 593.56 316.47 593.87 315.42C594.54 313.16 594.35 310.37 593.34 308.41ZM590.9 319.53C590.66 319.53 590.41 319.5 590.16 319.45C588.77 319.22 587.7 318.33 587.14 316.94C586.46 315.25 586.71 313.12 587.73 311.75C588.52 310.15 590.57 308.48 592.76 307.5C592.32 306.93 591.77 306.48 591.12 306.22C589.64 305.63 586.95 305.51 584.9 306.47C583.83 306.96 583.14 307.66 582.84 308.54C582.75 308.82 582.45 308.97 582.17 308.87C581.9 308.78 581.75 308.48 581.84 308.21C582.22 307.06 583.13 306.12 584.45 305.51C586.49 304.56 589.53 304.45 591.52 305.24C592.44 305.61 593.2 306.27 593.78 307.1C594.16 306.98 594.54 306.87 594.91 306.8C597.16 306.05 599.09 306.09 600.61 306.95C602.24 307.87 603.37 309.73 603.98 312.48C604.05 312.77 603.87 313.05 603.58 313.11C603.3 313.18 603.01 313 602.95 312.71C602.41 310.26 601.44 308.64 600.09 307.87C598.84 307.16 597.19 307.15 595.18 307.82C594.9 307.87 594.62 307.95 594.33 308.04C595.43 310.26 595.61 313.27 594.88 315.72C594.16 318.16 592.7 319.53 590.9 319.53Z" fill="#292929" fill-opacity="1.000000" fill-rule="nonzero"/>
		<path d="M148.92 334.73C148.57 334.73 148.21 334.81 147.85 334.96C145.7 335.88 144.89 337.66 144.59 338.99C144.33 340.14 144.35 341.41 144.59 342.62C145.07 342.61 145.57 342.55 146.06 342.44C148.43 341.86 150.64 340 151.08 338.21C151.32 336.94 151 335.8 150.23 335.19C149.86 334.88 149.4 334.73 148.92 334.73ZM152.41 350.04C149.82 350.04 147.4 349.01 145.57 347.12C144.75 346.2 144.13 344.97 143.76 343.65C142.39 343.53 141.08 343.06 139.92 342.26C137.9 340.86 136.53 338.57 136.18 335.98C135.78 332.77 136.88 330.79 138.62 328.14C138.78 327.9 139.11 327.83 139.35 327.99C139.59 328.15 139.66 328.48 139.5 328.72C137.85 331.24 136.86 332.93 137.23 335.84C137.54 338.13 138.74 340.16 140.52 341.39C141.43 342.02 142.45 342.41 143.51 342.56C143.29 341.28 143.29 339.96 143.56 338.76C144.07 336.5 145.41 334.85 147.43 333.99C148.66 333.47 149.95 333.61 150.89 334.36C151.97 335.23 152.43 336.75 152.12 338.43C151.57 340.64 149.08 342.8 146.3 343.47C145.82 343.58 145.33 343.64 144.85 343.67C145.19 344.71 145.69 345.67 146.34 346.4C148.07 348.18 150.39 349.09 152.86 348.97C155.46 348.84 157.87 347.6 159.48 345.56C159.66 345.33 160 345.29 160.22 345.47C160.45 345.65 160.49 345.98 160.31 346.21C158.51 348.49 155.82 349.88 152.91 350.03C152.74 350.04 152.58 350.04 152.41 350.04Z" fill="#292929" fill-opacity="1.000000" fill-rule="nonzero"/>
		<path d="M168.52 33.11C168.5 33.14 168.48 33.18 168.46 33.22C167.17 35.72 167.67 38.32 169.87 40.53C171.47 42.14 172.99 42.73 174.02 42.15C175.1 41.54 175.58 39.71 175.13 37.9C174.86 36.82 173.6 33.34 168.52 33.11ZM156.7 47.36C156.41 47.36 156.17 47.12 156.17 46.83C156.15 42.33 157.89 37.81 160.71 35.06C162.71 33.11 165.19 32.07 167.92 32.04C170.06 28.69 174.52 26.62 178.44 27.27C180.74 27.65 182.75 28.91 184.69 30.13C188.29 32.37 191.4 34.31 195.4 30.1C195.6 29.89 195.93 29.88 196.14 30.08C196.35 30.28 196.36 30.61 196.16 30.82C191.57 35.67 187.79 33.31 184.13 31.02C182.28 29.86 180.36 28.66 178.27 28.31C175 27.77 171.19 29.42 169.17 32.1C173.39 32.51 175.54 35.18 176.15 37.64C176.72 39.94 176.04 42.22 174.54 43.07C173.67 43.56 171.81 43.98 169.12 41.28C166.72 38.87 166.08 35.91 167.33 33.12C165.1 33.27 163.12 34.17 161.45 35.81C158.83 38.38 157.21 42.6 157.23 46.83C157.23 47.12 156.99 47.36 156.7 47.36C156.7 47.36 156.7 47.36 156.7 47.36Z" fill="#292929" fill-opacity="1.000000" fill-rule="nonzero"/>
		<path d="M591.05 181.27C588.94 181.27 586.94 182.18 585.71 183.7C584.49 185.21 584.09 187.17 584.56 189.38C585.21 192.4 587.68 194.36 590.86 194.36C591.78 194.36 592.71 194.19 593.62 193.86C595.18 193.29 596.64 191.83 597.43 190.06C598.09 188.55 598.18 187.04 597.68 185.82C596.48 182.97 594 181.27 591.05 181.27ZM590.86 195.41C587.16 195.41 584.28 193.13 583.53 189.6C582.85 186.4 583.89 184.27 584.89 183.04C586.32 181.27 588.62 180.21 591.05 180.21C594.44 180.21 597.28 182.16 598.66 185.41C599.27 186.91 599.18 188.71 598.39 190.49C597.49 192.52 595.8 194.19 593.98 194.85C592.96 195.22 591.9 195.41 590.86 195.41Z" fill="#FAAD3A" fill-opacity="1.000000" fill-rule="nonzero"/>
		<path d="M62.4 325.62C60.29 325.62 58.3 326.53 57.06 328.05C55.84 329.56 55.45 331.52 55.92 333.73C56.56 336.75 59.03 338.71 62.21 338.71C63.14 338.71 64.07 338.54 64.98 338.21C66.54 337.64 68 336.19 68.78 334.41C69.45 332.9 69.54 331.39 69.04 330.17C67.84 327.32 65.35 325.62 62.4 325.62ZM62.21 339.76C58.51 339.76 55.64 337.48 54.89 333.95C54.2 330.75 55.25 328.62 56.24 327.39C57.67 325.62 59.98 324.56 62.4 324.56C65.79 324.56 68.64 326.51 70.01 329.76C70.63 331.26 70.53 333.06 69.75 334.84C68.85 336.87 67.16 338.54 65.34 339.2C64.31 339.57 63.26 339.76 62.21 339.76Z" fill="#40BDDE" fill-opacity="1.000000" fill-rule="nonzero"/>
		<path d="M584.24 229.84C583.27 229.84 582.33 230.13 581.52 230.68L565.93 241.26C564.86 241.99 564.14 243.1 563.89 244.38C563.65 245.66 563.92 246.96 564.64 248.03L575.23 263.61C576.13 264.94 577.64 265.74 579.27 265.74C580.25 265.74 581.19 265.45 581.99 264.9L597.58 254.32C599.8 252.81 600.38 249.78 598.87 247.55L588.28 231.97C587.38 230.64 585.87 229.84 584.24 229.84ZM579.27 266.8C577.29 266.8 575.46 265.83 574.35 264.21L563.77 248.62C562.88 247.32 562.56 245.74 562.86 244.18C563.15 242.62 564.03 241.28 565.34 240.39L580.93 229.8C581.91 229.14 583.05 228.78 584.24 228.78C586.22 228.78 588.06 229.75 589.16 231.38L599.75 246.96C601.58 249.66 600.87 253.36 598.17 255.19L582.59 265.78C581.61 266.44 580.46 266.8 579.27 266.8Z" fill="#40BDDE" fill-opacity="1.000000" fill-rule="nonzero"/>
		<path d="M111.59 373.28C110.67 373.28 109.9 373.6 109.38 374.2C108.7 374.98 108.44 376.23 108.65 377.71L111.71 399.35C112.03 401.6 113.19 402.94 114.81 402.94C115.71 402.94 116.71 402.53 117.69 401.76L134.9 388.28C136.28 387.2 136.95 385.95 136.78 384.76C136.62 383.58 135.63 382.56 133.99 381.9L113.72 373.74C112.96 373.44 112.25 373.28 111.59 373.28ZM114.81 403.99C112.65 403.99 111.06 402.27 110.67 399.5L107.61 377.86C107.35 376.04 107.69 374.54 108.58 373.51C109.77 372.13 111.84 371.84 114.12 372.76L134.39 380.93C136.39 381.73 137.61 383.04 137.83 384.61C138.06 386.19 137.25 387.79 135.55 389.12L118.34 402.59C117.17 403.51 115.95 403.99 114.81 403.99Z" fill="#FAAD3A" fill-opacity="1.000000" fill-rule="nonzero"/>
		<path d="M278.56 11.54C277.76 11.54 276.85 11.83 275.94 12.39L257.24 23.71C255.74 24.62 254.92 25.78 254.95 26.97C254.97 28.17 255.83 29.3 257.38 30.15L276.53 40.68C278.33 41.67 280.01 41.65 281.01 40.63C281.71 39.91 282.07 38.77 282.04 37.34L281.58 15.49C281.53 13.05 280.37 11.54 278.56 11.54ZM279.04 42.47C278.08 42.47 277.07 42.18 276.02 41.6L256.87 31.07C254.98 30.03 253.92 28.59 253.89 27C253.86 25.41 254.85 23.92 256.69 22.8L275.39 11.48C276.49 10.82 277.55 10.48 278.56 10.48C280.97 10.48 282.57 12.44 282.64 15.47L283.09 37.32C283.13 39.04 282.67 40.44 281.77 41.37C281.06 42.09 280.12 42.47 279.04 42.47Z" fill="#FDCA81" fill-opacity="1.000000" fill-rule="nonzero"/>
		<path d="M378.99 167.55C333.17 167.55 288.95 190.59 254.47 232.44C206.89 290.19 196.9 319.13 191.54 334.68C191.26 335.48 190.99 336.26 190.73 337C183.93 356.42 184.26 373.16 191.7 386.74C200.52 402.87 219.36 414.45 247.68 421.16C272.76 427.1 310.58 430.37 354.19 430.37C354.2 430.37 354.21 430.37 354.21 430.37C423.03 430.37 506.7 421.87 538.53 402.87C555.74 392.6 564.68 366.51 561.88 334.78C557.33 283.37 519.78 211.16 428.92 176.8C412.69 170.66 395.89 167.55 378.99 167.55ZM354.21 431.43C354.2 431.43 354.2 431.43 354.19 431.43C310.5 431.43 272.59 428.14 247.44 422.19C218.81 415.41 199.75 403.65 190.77 387.25C183.18 373.39 182.83 356.37 189.73 336.65C189.99 335.91 190.26 335.14 190.54 334.33C195.92 318.72 205.95 289.66 253.65 231.77C288.34 189.67 332.85 166.49 378.99 166.49C396.02 166.49 412.94 169.62 429.29 175.81C470.06 191.23 504.15 216.01 527.88 247.48C547.85 273.97 560.3 304.94 562.93 334.68C565.77 366.82 556.63 393.3 539.07 403.78C507.07 422.88 423.17 431.43 354.21 431.43Z" fill="#292929" fill-opacity="1.000000" fill-rule="nonzero"/>
		<path d="M146.73 124.04C148.83 127.48 150.55 133.6 151.51 140.28C152.18 144.97 153.42 145.44 158 147.55C162.59 149.65 163.64 153.66 161.16 155.95C157.62 159.22 157.62 157.44 157.15 161.11C156.83 163.57 157.49 165.53 154.19 164.47C152.89 164.05 150.22 162.46 149.83 162.75C148.69 163.64 149.04 166.98 153.4 169.49C154.99 170.4 156.3 170.28 154.9 177.55C153.68 183.88 146.01 184.86 138.42 183.42C130.82 181.99 132.4 187.72 129.39 195.89C126.38 204.06 125.95 208.65 130.1 212.09C134.26 215.53 137.56 232.01 137.13 236.02C136.7 240.04 122.37 248.35 110.18 234.88C103.59 225.71 96.14 208.08 96.14 208.08C96.14 208.08 103.88 197.33 103.73 186.86C103.59 176.4 99.15 136.99 113.62 125.81C128.1 114.63 145.3 121.27 146.73 124.04Z" fill="#FEFEFE" fill-opacity="1.000000" fill-rule="nonzero"/>
		<path d="M96.74 208.14C97.7 210.39 104.57 226.16 110.61 234.57C115.96 240.48 121.47 241.73 125.14 241.73C131.51 241.73 136.39 237.99 136.6 235.97C137.02 232.09 133.69 215.74 129.77 212.5C125.22 208.73 125.95 203.69 128.89 195.71C129.69 193.54 130.16 191.55 130.58 189.79C131.55 185.66 132.26 182.68 136.34 182.68C136.99 182.68 137.7 182.75 138.52 182.91C140.51 183.28 142.42 183.47 144.18 183.47C148.3 183.47 153.42 182.43 154.38 177.45C155.58 171.23 154.79 170.82 153.58 170.19C153.44 170.11 153.29 170.03 153.14 169.95C150.53 168.44 148.89 166.37 148.76 164.39C148.7 163.5 148.97 162.75 149.51 162.34C149.97 161.98 150.77 162.33 152.46 163.14C153.15 163.47 153.87 163.81 154.35 163.97C154.91 164.15 155.35 164.24 155.68 164.24C156.3 164.24 156.42 163.98 156.51 162.4C156.53 161.98 156.56 161.52 156.62 161.05C156.94 158.6 157.07 158.34 158.3 157.53C158.82 157.18 159.61 156.67 160.8 155.57C161.69 154.74 162.08 153.66 161.89 152.5C161.62 150.75 160.08 149.08 157.78 148.03L157.52 147.9C153.15 145.91 151.68 145.23 150.98 140.36C149.99 133.44 148.28 127.59 146.28 124.32C145.61 123.03 139.98 120.08 132.02 120.08C127.41 120.08 120.53 121.14 113.94 126.23C101.7 135.68 103.26 166.26 104.01 180.95C104.14 183.33 104.24 185.39 104.26 186.86C104.39 196.63 97.92 206.44 96.74 208.14ZM125.14 242.79C121.25 242.79 115.44 241.48 109.79 235.23C103.2 226.07 95.72 208.46 95.65 208.28C95.58 208.11 95.6 207.92 95.71 207.77C95.78 207.66 103.34 197.04 103.2 186.87C103.18 185.43 103.08 183.38 102.96 181C102.2 166.13 100.62 135.18 113.3 125.39C120.12 120.12 127.24 119.02 132.02 119.02C139.77 119.02 146.19 121.85 147.2 123.8C149.25 127.16 151.02 133.15 152.03 140.21C152.65 144.51 153.66 144.98 157.96 146.94L158.22 147.07C160.88 148.28 162.6 150.2 162.94 152.33C163.18 153.85 162.67 155.27 161.52 156.34C160.26 157.5 159.43 158.05 158.88 158.41C157.97 159.01 157.95 159.02 157.67 161.18C157.61 161.63 157.59 162.06 157.56 162.46C157.47 164.13 157.31 166.03 154.03 164.97C153.48 164.8 152.73 164.44 152 164.09C151.36 163.78 150.43 163.34 150.07 163.26C149.87 163.48 149.78 163.86 149.81 164.32C149.9 165.57 150.95 167.47 153.66 169.03C153.8 169.11 153.94 169.18 154.07 169.25C155.79 170.15 156.7 170.99 155.42 177.65C154.56 182.09 150.57 184.53 144.18 184.53C142.35 184.53 140.38 184.33 138.32 183.94C137.58 183.8 136.91 183.73 136.34 183.73C133.22 183.73 132.64 185.66 131.61 190.03C131.18 191.82 130.71 193.84 129.88 196.08C126.69 204.76 126.83 208.69 130.44 211.68C134.77 215.27 138.11 231.84 137.65 236.08C137.36 238.78 131.98 242.79 125.14 242.79Z" fill="#292929" fill-opacity="1.000000" fill-rule="nonzero"/>
		<path d="M103.35 306.73C106.03 307.88 131.25 309.22 131.25 309.22C131.25 309.22 142.34 273.86 137.75 233.35C128.58 241.38 118.26 239.46 107.94 231.06C114.43 250.93 111.38 291.82 103.35 306.73Z" fill="#292929" fill-opacity="1.000000" fill-rule="nonzero"/>
		<path d="M142.16 149.89C142.72 151.68 144 152.87 145.02 152.55C146.04 152.23 146.41 150.53 145.85 148.74C145.3 146.95 144.02 145.76 143 146.08C141.98 146.39 141.6 148.1 142.16 149.89Z" fill="#292929" fill-opacity="1.000000" fill-rule="nonzero"/>
		<path d="M143.88 146.93C143.83 146.93 143.78 146.92 143.73 146.91C143.45 146.83 143.29 146.53 143.37 146.25L144.33 143C144.41 142.73 144.7 142.56 144.98 142.65C145.26 142.73 145.42 143.02 145.34 143.3L144.39 146.55C144.32 146.78 144.11 146.93 143.88 146.93Z" fill="#292929" fill-opacity="1.000000" fill-rule="nonzero"/>
		<path d="M118.45 254.75C115.5 232.99 105.77 218.6 97.17 205.26C95.85 203.22 94.62 203.51 94.06 203.62C89.95 204.44 85.36 206.37 86.53 208.89C86.78 209.42 87.17 209.97 87.64 210.58C85.86 210.94 83.72 211.39 81.18 211.95C71.63 214.05 65.71 217.83 59.79 223.75C53.87 229.67 23.57 266.41 15.16 275.77C26.25 297.17 45.27 300.33 45.27 300.33C45.27 300.33 62.65 282.84 73.54 269.47C73.16 272.14 71.82 296.99 68 306.73C74.75 310.65 93.51 310.46 103.95 310.01C105.66 311.59 112.33 310.17 112.33 310.17C112.33 310.17 121.51 277.3 118.45 254.75Z" fill="#40BDDE" fill-opacity="1.000000" fill-rule="nonzero"/>
		<path d="M86.25 129.97C81.23 131.83 75.64 136.41 72.63 156.05C71.18 165.55 67.65 175.74 68.32 185.42C68.94 194.49 76.79 196.96 84.79 198.56C91.84 199.97 119.24 206.5 120.96 194.7C122.98 180.94 101.29 174.03 104.4 161.26C105.03 158.66 107.64 155.43 110.32 154.83C113.75 154.07 114.77 157 117.43 158.79C120.68 160.98 122.62 159.7 124.57 156.42C126.42 153.31 125.72 148.34 125.43 144.85C125.05 140.28 124.51 138.64 128.47 137.33C133.83 135.56 138.42 131.93 133.26 125.81C140.14 133.98 143.58 132.69 149.17 129.11C154.76 125.52 155.04 122.23 152.89 116.06C150.74 109.9 144.15 100.44 132.54 101.87C120.93 103.31 122.08 106.46 108.18 109.33C94.27 112.19 85.39 116.35 86.25 129.97Z" fill="#292929" fill-opacity="1.000000" fill-rule="nonzero"/>
		<path d="M138.13 140.67C138.07 140.67 138.01 140.66 137.95 140.64C137.68 140.54 137.53 140.24 137.63 139.96C138.01 138.91 140.13 133.62 145.05 132.6C145.33 132.54 145.61 132.73 145.67 133.01C145.73 133.3 145.55 133.58 145.26 133.64C140.9 134.54 138.97 139.36 138.63 140.32C138.55 140.53 138.35 140.67 138.13 140.67Z" fill="#292929" fill-opacity="1.000000" fill-rule="nonzero"/>
		<path d="M103.54 309.55C103.53 309.55 103.52 309.55 103.51 309.55C103.22 309.53 103 309.28 103.02 308.99C103.04 308.53 103.14 307.28 103.28 305.46C104.11 294.84 106.31 266.61 105.5 260.17C104.66 253.42 106.49 251.73 109.26 249.17C109.6 248.85 109.97 248.52 110.34 248.15C108.98 247.28 105.4 245.01 102.69 243.36C99.87 241.63 99.24 239.28 97.58 233.01C97.08 231.14 96.52 229.02 95.77 226.43C93.5 218.54 90.27 214.62 88.13 212.02C87.61 211.38 87.15 210.83 86.77 210.3C86.6 210.07 86.66 209.74 86.9 209.57C87.14 209.4 87.46 209.45 87.63 209.69C87.99 210.19 88.43 210.72 88.95 211.35C91.14 214.01 94.46 218.04 96.79 226.13C97.54 228.73 98.13 230.95 98.6 232.74C100.18 238.71 100.78 240.95 103.25 242.45C106.65 244.54 111.42 247.59 111.47 247.62C111.61 247.71 111.7 247.85 111.71 248.01C111.73 248.17 111.67 248.32 111.56 248.44C111 249 110.47 249.49 109.97 249.95C107.27 252.45 105.77 253.83 106.55 260.04C107.37 266.59 105.17 294.89 104.34 305.54C104.2 307.36 104.1 308.6 104.07 309.06C104.05 309.34 103.82 309.55 103.54 309.55Z" fill="#FEFEFE" fill-opacity="1.000000" fill-rule="nonzero"/>
		<path d="M177.31 240.42L173.29 252.27C173.29 252.27 163.74 234.88 157.62 227.23C151.91 220.09 143.69 215.62 137.18 213.19C132.79 205.92 126.58 204.87 126.58 204.87C126.58 204.87 126.09 206.59 127 208.77C127.91 210.95 137.75 228 135.46 255.13C133.16 282.27 125.33 309.22 125.33 309.22L131.25 309.22C131.25 309.22 131.3 309.07 131.38 308.79C135.84 309.36 144.91 310.28 145.2 308.26C145.58 305.59 150.74 284.18 153.8 277.49C162.97 294.5 171.48 297.97 183.8 292.8C192.6 289.1 199.86 259.53 200.81 247.87C201 247.68 177.31 240.42 177.31 240.42Z" fill="#40BDDE" fill-opacity="1.000000" fill-rule="nonzero"/>
		<path d="M131.25 309.74C131.2 309.74 131.15 309.74 131.1 309.72C130.82 309.64 130.66 309.34 130.75 309.06C130.87 308.67 142.61 270.2 144.31 262.85C146.05 255.29 145.99 254.38 144.86 252.16C143.43 249.37 142.2 246.92 142.2 246.92C142.08 246.67 142.16 246.38 142.39 246.23C143.68 245.44 146.91 242.9 146.36 240.74C145.14 235.96 140.5 220.1 137.1 214.07L136.99 213.88C136.84 213.62 136.93 213.3 137.18 213.15C137.44 213.01 137.76 213.1 137.91 213.35L138.02 213.55C141.47 219.67 146.16 235.66 147.39 240.48C148.11 243.31 144.59 246.02 143.36 246.86C143.76 247.68 144.72 249.58 145.8 251.68C147.13 254.27 147.07 255.55 145.33 263.09C143.63 270.48 131.88 308.98 131.76 309.37C131.69 309.6 131.48 309.74 131.25 309.74Z" fill="#FEFEFE" fill-opacity="1.000000" fill-rule="nonzero"/>
		<path d="M153.8 278.02C153.73 278.02 153.65 278.01 153.58 277.97C153.32 277.85 153.2 277.54 153.32 277.27C161.91 258.47 158.71 251.7 156.8 247.66C156.46 246.95 156.18 246.34 155.98 245.75C155.89 245.47 156.03 245.17 156.31 245.08C156.59 244.99 156.89 245.14 156.98 245.41C157.16 245.95 157.43 246.53 157.75 247.2C159.74 251.41 163.08 258.46 154.28 277.71C154.19 277.91 154 278.02 153.8 278.02Z" fill="#292929" fill-opacity="1.000000" fill-rule="nonzero"/>
		<path d="M176.4 259.96C176.2 259.96 176.01 259.85 175.92 259.66C175.9 259.62 173.79 255.2 171.9 250.66C171.79 250.39 171.91 250.08 172.18 249.96C172.45 249.86 172.76 249.98 172.87 250.25C174.76 254.77 176.86 259.16 176.88 259.21C177 259.47 176.89 259.78 176.63 259.91C176.55 259.95 176.48 259.96 176.4 259.96Z" fill="#292929" fill-opacity="1.000000" fill-rule="nonzero"/>
		<path d="M178.84 235.88C180.98 229.14 184.14 210.94 184.85 204.21C185.57 197.47 181.56 188.01 186.29 181.99C191.02 175.97 194.03 172.96 195.32 169.95C196.61 166.94 199.62 166.51 201.19 169.52C202.77 172.53 200.33 177.84 196.75 181.56C205.49 175.97 206.21 177.98 208.93 173.68C211.66 169.38 216.96 158.34 220.4 158.63C223.27 154.76 226.56 156.91 227.14 162.21C228.86 162.07 230.43 166.08 229.29 172.1C233.44 174.54 233.01 183.42 227.14 190.16C221.26 196.9 210.08 200.91 207.64 206.36C205.21 211.8 201.19 243.76 201.19 243.76L178.84 235.88Z" fill="#FEFEFE" fill-opacity="1.000000" fill-rule="nonzero"/>
		<path d="M179.49 235.55L200.75 243.05C201.35 238.35 204.89 211.23 207.16 206.14C208.53 203.08 212.47 200.49 216.65 197.75C220.29 195.36 224.06 192.88 226.74 189.81C230.22 185.82 232.04 180.62 231.38 176.55C231.07 174.66 230.25 173.28 229.02 172.56C228.83 172.44 228.72 172.22 228.77 172C229.6 167.61 228.96 164.41 227.95 163.19C227.78 162.98 227.52 162.74 227.22 162.74C226.95 162.74 226.64 162.54 226.61 162.27C226.28 159.23 225.01 157.18 223.44 157.18C222.58 157.18 221.68 157.79 220.82 158.94C220.71 159.09 220.54 159.17 220.36 159.16C220.36 159.16 220.35 159.16 220.35 159.16C217.88 159.16 214.02 165.92 211.47 170.4C210.7 171.75 209.97 173.02 209.38 173.96C207.74 176.55 206.74 176.99 204.57 177.95C202.95 178.66 200.74 179.63 197.03 182.01C196.81 182.15 196.51 182.1 196.34 181.9C196.17 181.69 196.18 181.39 196.37 181.19C199.62 177.82 202.25 172.67 200.73 169.77C200.13 168.62 199.3 168 198.38 168C197.35 168 196.38 168.8 195.8 170.16C194.88 172.32 193.16 174.4 190.56 177.55C189.43 178.92 188.15 180.48 186.7 182.32C183.74 186.08 184.37 191.35 184.98 196.43C185.32 199.23 185.63 201.87 185.38 204.26C184.7 210.63 181.67 228.36 179.49 235.55ZM201.19 244.29C201.13 244.29 201.07 244.28 201.02 244.26L178.66 236.38C178.39 236.28 178.24 235.99 178.33 235.72C180.5 228.93 183.64 210.63 184.33 204.15C184.57 201.88 184.26 199.3 183.93 196.56C183.3 191.26 182.64 185.77 185.87 181.66C187.33 179.81 188.61 178.25 189.75 176.88C192.29 173.8 193.97 171.76 194.83 169.74C195.58 167.99 196.91 166.94 198.38 166.94C199.69 166.94 200.88 167.79 201.66 169.28C203.07 171.97 201.63 176.04 199.17 179.47C201.43 178.18 203 177.49 204.14 176.98C206.23 176.06 207.02 175.72 208.49 173.4C209.07 172.48 209.79 171.22 210.55 169.88C214.17 163.53 217.39 158.26 220.14 158.1C221.42 156.48 222.63 156.13 223.44 156.13C225.52 156.13 227.13 158.31 227.61 161.73C227.95 161.81 228.36 162.03 228.76 162.51C229.82 163.79 230.72 166.99 229.87 171.85C231.21 172.77 232.08 174.33 232.42 176.38C233.13 180.75 231.21 186.29 227.53 190.51C224.76 193.69 220.93 196.2 217.23 198.63C213.19 201.29 209.37 203.79 208.13 206.57C205.75 211.88 201.76 243.51 201.72 243.83C201.7 243.99 201.61 244.13 201.47 244.21C201.39 244.27 201.29 244.29 201.19 244.29Z" fill="#292929" fill-opacity="1.000000" fill-rule="nonzero"/>
		<path d="M201.91 191.41C201.67 191.41 201.45 191.24 201.4 191C200.67 187.96 197.95 182.99 196.46 182C196.22 181.84 196.15 181.51 196.31 181.27C196.47 181.02 196.8 180.96 197.04 181.12C198.9 182.36 201.69 187.68 202.42 190.75C202.49 191.04 202.32 191.32 202.03 191.39C201.99 191.4 201.95 191.41 201.91 191.41Z" fill="#292929" fill-opacity="1.000000" fill-rule="nonzero"/>
		<path d="M219.4 188.54C219.2 188.54 219.02 188.43 218.92 188.25C218.39 187.18 212.04 179.57 209.63 178.77C209.35 178.67 209.2 178.38 209.29 178.1C209.38 177.82 209.68 177.67 209.96 177.76C212.73 178.69 219.29 186.62 219.87 187.78C220 188.04 219.89 188.35 219.63 188.48C219.56 188.52 219.48 188.54 219.4 188.54Z" fill="#292929" fill-opacity="1.000000" fill-rule="nonzero"/>
		<path d="M218.11 189.26C217.91 189.26 217.72 189.14 217.63 188.95C217.5 188.69 217.62 188.37 217.88 188.25C219.54 187.48 223.19 182.8 224.18 177.45C224.68 174.71 225.53 173.01 226.76 172.25C227.9 171.54 229.15 171.78 230 172.02C230.28 172.1 230.45 172.4 230.37 172.68C230.29 172.96 229.99 173.12 229.71 173.04C228.66 172.74 227.92 172.77 227.31 173.14C226.37 173.73 225.66 175.25 225.22 177.65C224.2 183.15 220.4 188.25 218.33 189.21C218.26 189.24 218.18 189.26 218.11 189.26Z" fill="#292929" fill-opacity="1.000000" fill-rule="nonzero"/>
		<path d="M216.24 184.53C216.09 184.53 215.95 184.46 215.84 184.34C215.65 184.12 215.68 183.79 215.9 183.6C219.02 180.88 220.3 176.92 221.46 171C222.52 165.55 224.59 162.51 227.62 161.98C227.9 161.93 228.18 162.12 228.23 162.41C228.28 162.7 228.09 162.97 227.8 163.02C225.25 163.47 223.47 166.22 222.49 171.2C221.29 177.35 219.94 181.48 216.59 184.4C216.49 184.48 216.37 184.53 216.24 184.53Z" fill="#292929" fill-opacity="1.000000" fill-rule="nonzero"/>
		<path d="M212.95 180.8C212.84 180.8 212.74 180.77 212.64 180.7C212.4 180.54 212.35 180.21 212.51 179.97C214.07 177.76 216.02 171.44 217.59 166.36C218.76 162.57 219.78 159.29 220.51 157.95C220.65 157.69 220.97 157.6 221.23 157.74C221.48 157.88 221.58 158.2 221.44 158.45C220.75 159.7 219.71 163.09 218.6 166.68C216.93 172.09 215.03 178.23 213.38 180.58C213.28 180.72 213.11 180.8 212.95 180.8Z" fill="#292929" fill-opacity="1.000000" fill-rule="nonzero"/>
		<path d="M72.39 271.14C72.27 271.14 72.15 271.1 72.05 271.02C71.83 270.83 71.8 270.49 71.99 270.27C75.21 266.48 81.69 259.62 81.76 259.55C81.96 259.34 82.29 259.33 82.5 259.53C82.71 259.73 82.72 260.06 82.52 260.28C82.46 260.35 76 267.19 72.8 270.96C72.69 271.08 72.54 271.14 72.39 271.14Z" fill="#292929" fill-opacity="1.000000" fill-rule="nonzero"/>
		<path d="M177.9 234.18C175.79 238.14 174.57 244.56 175 245.14C175.43 245.71 191.1 246.98 201.8 254.64C204.24 255.79 205.01 244.5 204.63 243.19C203.63 239.75 179.19 232.74 177.9 234.18Z" fill="#292929" fill-opacity="1.000000" fill-rule="nonzero"/>
		<path d="M118.26 254.33C118.13 254.33 118.01 254.28 117.91 254.2C117.86 254.15 113.05 249.97 110.81 248.48C110.56 248.32 110.5 247.99 110.66 247.75C110.82 247.51 111.15 247.44 111.39 247.6C113.69 249.13 118.4 253.22 118.6 253.4C118.82 253.59 118.85 253.92 118.66 254.14C118.55 254.26 118.4 254.33 118.26 254.33Z" fill="#FEFEFE" fill-opacity="1.000000" fill-rule="nonzero"/>
		<path d="M135.66 252.18C135.53 252.18 135.39 252.13 135.29 252.02C135.08 251.82 135.08 251.48 135.29 251.28C137.31 249.26 139.89 247.71 141.59 246.69C142.02 246.43 142.38 246.21 142.66 246.04C142.9 245.88 143.23 245.95 143.39 246.19C143.55 246.43 143.48 246.76 143.23 246.92C142.95 247.11 142.57 247.33 142.14 247.59C140.48 248.59 137.96 250.1 136.04 252.02C135.93 252.13 135.8 252.18 135.66 252.18Z" fill="#FEFEFE" fill-opacity="1.000000" fill-rule="nonzero"/>
		<path d="M120.31 177.12C119.76 171.9 115.65 166.56 110.77 169.68C106.53 172.39 105.24 179.68 109.12 183.13C110.77 184.61 113.45 185.29 115.68 184.86C119.44 184.12 120.69 180.65 120.31 177.12Z" fill="#FAAD3A" fill-opacity="1.000000" fill-rule="nonzero"/>
		<path d="M131.08 66.26C127.23 66.26 123.36 66.43 119.59 66.76C60.76 71.97 23.96 105.06 10.21 165.11C4.17 191.51 -1.01 253.66 21.56 277.32C45.72 302.65 64.11 305.46 103.36 306.2C116.92 306.46 128.3 306.89 138.34 307.27C150.01 307.71 160.1 308.09 170.38 308.09C170.38 308.09 170.38 308.09 170.38 308.09C178.54 308.09 186.01 307.85 193.9 307.35L196.34 307.2C225.68 305.37 270.01 302.61 274.82 237.51C278.55 186.91 265.04 143.49 235.75 111.96C209.16 83.34 170.04 66.26 131.08 66.26ZM170.38 309.15C170.38 309.15 170.38 309.15 170.38 309.15C160.08 309.15 149.98 308.76 138.3 308.32C128.26 307.95 116.89 307.51 103.34 307.26C63.77 306.51 45.23 303.66 20.8 278.05C-2.07 254.08 3.1 191.45 9.18 164.88C23.04 104.33 60.16 70.96 119.5 65.71C123.3 65.38 127.2 65.2 131.08 65.2C170.32 65.2 209.74 82.41 236.52 111.24C257.09 133.38 280.61 173.28 275.87 237.59C271 303.6 226.11 306.4 196.4 308.25L193.97 308.4C186.05 308.91 178.56 309.15 170.38 309.15Z" fill="#292929" fill-opacity="1.000000" fill-rule="nonzero"/>
		<path d="M185.06 91.65C192.22 89.78 215.1 85.42 227.08 82.93C239.06 80.44 252.14 78.73 253.85 79.51C255.56 80.29 236.57 104.25 227.7 113.75C224.75 115.77 220.7 112.04 220.7 112.04C212.3 120.75 202.8 124.02 201.25 124.33C199.69 124.64 198.91 114.99 198.76 109.23C198.6 103.48 199.62 102.35 194.87 100.05C180.08 92.89 185.06 91.65 185.06 91.65Z" fill="#40BDDE" fill-opacity="1.000000" fill-rule="nonzero"/>
		<path d="M201.25 124.86C201.02 124.86 200.8 124.7 200.74 124.47C200.66 124.19 200.83 123.9 201.11 123.82C201.89 123.54 204.73 118.94 206.8 115.58C209.03 111.97 211.14 108.56 212.39 107.31C214.75 104.94 236.52 90.08 245.76 83.83L200.51 101.79C200.24 101.9 199.93 101.76 199.82 101.49C199.72 101.22 199.85 100.92 200.12 100.81L249.92 81.04C250.18 80.94 250.48 81.06 250.6 81.32C250.71 81.58 250.6 81.88 250.35 82.01C248.81 82.82 215.61 105.58 213.14 108.05C211.97 109.22 209.8 112.73 207.7 116.13C204.1 121.97 202.41 124.56 201.39 124.84C201.34 124.85 201.29 124.86 201.25 124.86Z" fill="#292929" fill-opacity="1.000000" fill-rule="nonzero"/>
		<path d="M221.63 113.19C221.53 113.19 221.42 113.15 221.32 113.09L221.09 112.92C217.9 110.59 213.93 107.68 213 108.15C212.74 108.28 212.42 108.17 212.29 107.91C212.16 107.65 212.27 107.34 212.53 107.21C213.96 106.49 216.81 108.48 221.72 112.07L221.94 112.23C222.18 112.4 222.23 112.74 222.06 112.97C221.96 113.11 221.8 113.19 221.63 113.19Z" fill="#292929" fill-opacity="1.000000" fill-rule="nonzero"/>
		<path d="M262.25 198.35C256.26 198.9 252.87 202.62 253.46 213.2C254.06 223.78 251.67 234.7 255.86 238.79C260.05 242.89 270.63 242.89 280.42 243.06C290.2 243.23 302.87 242.95 306.62 242.89C315.45 242.76 318.6 241.23 319.79 234.32C320.5 230.25 318.81 207.29 318.75 204.88C318.6 198.87 314.7 198.1 306.17 197.71C297.99 197.34 267.84 197.84 262.25 198.35Z" fill="#FAAD3A" fill-opacity="1.000000" fill-rule="nonzero"/>
		<path d="M286.28 226.36C286.24 226.36 286.2 226.36 286.16 226.36C281.95 226.3 278.53 222.76 276.01 219.68C271.37 213.98 260.93 202.31 258.39 200.14C258.17 199.95 258.14 199.61 258.33 199.39C258.52 199.17 258.85 199.15 259.07 199.33C261.65 201.53 272.17 213.29 276.83 219.01C279.2 221.91 282.4 225.25 286.18 225.31C288.88 225.32 291.7 223.69 294.57 220.37C302.48 211.25 314.22 199.75 314.33 199.64C314.54 199.44 314.88 199.44 315.08 199.65C315.28 199.86 315.28 200.19 315.07 200.39C314.95 200.51 303.25 211.97 295.37 221.06C292.28 224.63 289.3 226.36 286.28 226.36Z" fill="#292929" fill-opacity="1.000000" fill-rule="nonzero"/>
		<path d="M255.86 239.32C255.67 239.32 255.48 239.22 255.39 239.03C255.26 238.77 255.36 238.45 255.62 238.32C257 237.64 264 231.03 269.11 226.2C273.35 222.21 275.77 219.93 276.35 219.58C276.6 219.42 276.92 219.5 277.07 219.75C277.22 220 277.15 220.32 276.9 220.48C276.39 220.79 273.21 223.79 269.84 226.97C262.91 233.51 257.5 238.57 256.1 239.27C256.02 239.31 255.94 239.32 255.86 239.32Z" fill="#292929" fill-opacity="1.000000" fill-rule="nonzero"/>
		<path d="M315.55 241.03C315.38 241.03 315.2 240.94 315.1 240.77C314.76 240.2 310.83 235.93 307.02 231.81C302 226.37 296.81 220.75 296.02 219.5C295.87 219.25 295.94 218.93 296.19 218.77C296.44 218.62 296.76 218.69 296.92 218.94C297.65 220.1 303.04 225.94 307.8 231.1C312.65 236.35 315.64 239.6 316.01 240.23C316.16 240.49 316.07 240.81 315.82 240.96C315.74 241.01 315.65 241.03 315.55 241.03Z" fill="#292929" fill-opacity="1.000000" fill-rule="nonzero"/>
		<path d="M505.17 64.97C502.26 52.64 475.5 36.8 464.06 41.2C452.62 45.6 467.23 50.71 467.23 50.71C449.63 47.54 441.18 49.65 439.42 54.05C437.66 58.45 445.05 60.21 445.05 60.21C433.08 60.56 419.7 69.9 421.64 76.41C423.57 82.92 431.49 80.55 431.49 80.55C420.23 89.61 422.07 98.83 433.82 97.74C421.46 107.04 419.7 124.12 424.45 130.28C429.21 136.44 433.82 127.11 433.82 127.11C428.85 140.84 436.25 149.82 443.29 138.37C441.7 154.04 455.61 156.15 460.01 148.41C464.24 163.37 474.27 161.08 476.03 153.69C481.49 160.55 492.23 158.27 494.34 150.87C500.33 157.91 505.61 151.49 505.08 146.03C511.24 153.25 520.92 154.13 522.86 141.01C531.66 147.53 536.06 147.35 533.68 131.77C548.38 137.14 556.13 120.77 539.23 106.69C550.5 109.68 549.26 98.06 533.16 91.11C544.51 90.84 545.92 83.1 540.29 77.38C534.65 71.65 525.15 60.56 505.17 64.97Z" fill="#292929" fill-opacity="1.000000" fill-rule="nonzero"/>
		<path d="M449.22 95.04C447.5 105.35 450.56 108.41 453.61 115.68C456.67 122.94 452.39 130.59 460.54 139.66C468.14 148.11 479.6 147.59 479.6 147.59L482.85 160.77L510.94 153.51L504.83 127.04C504.83 127.04 510.56 123.89 508.84 112.62C507.12 101.34 506.93 73.44 479.6 77.65C452.27 81.85 451.7 86.82 449.22 95.04Z" fill="#FEFEFE" fill-opacity="1.000000" fill-rule="nonzero"/>
		<path d="M479.6 147.06C479.84 147.06 480.06 147.23 480.11 147.46L483.23 160.13L510.31 153.13L504.31 127.16C504.26 126.93 504.37 126.7 504.57 126.58C504.63 126.55 509.96 123.42 508.32 112.7C508.14 111.54 507.98 110.21 507.81 108.75C506.41 97.16 504.07 77.75 484.89 77.75C483.25 77.75 481.5 77.89 479.68 78.17C453.61 82.18 452.24 86.77 449.97 94.37L449.72 95.19C448.38 103.26 450.04 106.76 452.33 111.59C452.91 112.8 453.5 114.04 454.1 115.47C455.28 118.27 455.4 121.05 455.53 123.99C455.74 128.79 455.95 133.76 460.93 139.31C467.57 146.69 477.32 147.07 479.2 147.07C479.71 147.07 479.59 147.06 479.6 147.06ZM482.85 161.3C482.76 161.3 482.66 161.28 482.58 161.23C482.46 161.16 482.37 161.04 482.34 160.9L479.19 148.12C477.19 148.12 467.07 147.71 460.15 140.01C454.91 134.18 454.68 128.79 454.47 124.04C454.35 121.19 454.23 118.5 453.13 115.88C452.53 114.47 451.95 113.24 451.38 112.04C449.09 107.22 447.28 103.42 448.7 94.95L448.96 94.06C451.35 86.06 452.79 81.24 479.52 77.12C481.39 76.84 483.2 76.69 484.89 76.69C505.01 76.69 507.42 96.68 508.85 108.63C509.03 110.07 509.19 111.39 509.36 112.54C510.89 122.56 506.7 126.38 505.42 127.29L511.46 153.39C511.52 153.67 511.35 153.95 511.07 154.02L482.98 161.29C482.94 161.3 482.89 161.3 482.85 161.3Z" fill="#292929" fill-opacity="1.000000" fill-rule="nonzero"/>
		<path d="M515.33 102.99C514.37 97.23 513.2 91.78 510.23 86.65C508.39 83.49 506.74 80.23 503.63 78.12C494.91 72.2 483.18 72.55 473.26 74.61C465.38 76.24 456.61 79.04 450.5 84.47C448.47 86.27 440.26 94.46 445.58 96.83C448.69 98.21 452.13 95.27 454.48 93.29C454.58 93.59 454.75 93.91 455 94.28C456.58 96.65 460.54 96.92 463.18 96.39C470.05 95.33 476.65 90.84 481.67 85.83C480.61 87.41 479.29 89.52 479.82 91.64C480.87 94.01 483.25 94.28 485.36 94.28C489.85 94.01 494.08 90.32 497.25 87.41C494.6 92.43 491.7 97.44 491.44 103.25C491.17 105.9 491.44 108.8 492.49 111.18C493.81 114.34 496.72 114.34 499.36 112.5C498.04 116.72 497.25 120.68 499.09 124.91C500.19 127.43 503.67 131.68 508.51 130.8C512.38 130.1 513.09 121.03 514.5 117.87C517.11 111.96 516.39 109.42 515.33 102.99Z" fill="#292929" fill-opacity="1.000000" fill-rule="nonzero"/>
		<path d="M443.92 98.72C441.56 98.72 439.27 97.88 438.63 95.49C438.26 94.09 438.48 92.41 438.81 91.29C439.45 89.12 441.43 86.04 443.22 84.43C443.43 84.24 443.76 84.25 443.96 84.47C444.16 84.69 444.14 85.02 443.92 85.22C442.29 86.69 440.41 89.61 439.83 91.59C439.54 92.57 439.34 94.03 439.66 95.22C440.45 98.19 444.66 97.68 445.49 97.54C448 97.14 449.85 96.56 451.34 95.73C451.59 95.59 451.91 95.68 452.06 95.94C452.2 96.19 452.11 96.51 451.85 96.66C450.26 97.55 448.29 98.16 445.66 98.58C445.09 98.67 444.5 98.72 443.92 98.72Z" fill="#FEFEFE" fill-opacity="1.000000" fill-rule="nonzero"/>
		<path d="M471.8 129.75C471.79 129.75 471.78 129.75 471.77 129.74C468.29 129.55 466.12 128.75 465.13 127.29C463.89 125.47 464.68 123.11 465.45 120.82C465.59 120.37 465.74 119.92 465.87 119.49C467.04 115.58 464.36 110.87 461.38 108.15C459.02 105.99 456.02 105.59 454.09 106.14C452.99 106.46 452.24 107.07 452.02 107.84C451.94 108.12 451.65 108.28 451.37 108.2C451.09 108.12 450.92 107.83 451 107.55C451.32 106.43 452.34 105.54 453.79 105.13C456.01 104.49 459.43 104.94 462.09 107.37C465.42 110.41 468.19 115.43 466.88 119.79C466.75 120.24 466.6 120.69 466.45 121.15C465.77 123.2 465.06 125.31 466 126.69C466.79 127.85 468.75 128.52 471.83 128.69C472.12 128.71 472.34 128.96 472.32 129.25C472.31 129.53 472.07 129.75 471.8 129.75Z" fill="#292929" fill-opacity="1.000000" fill-rule="nonzero"/>
		<path d="M470.18 106.4C470.06 106.4 469.95 106.36 469.85 106.29C469.62 106.11 469.59 105.77 469.77 105.54C471.61 103.22 476.95 98.4 486.68 103.94C486.93 104.08 487.02 104.4 486.88 104.66C486.74 104.91 486.41 105 486.16 104.85C477.47 99.91 472.68 103.57 470.59 106.2C470.49 106.33 470.34 106.4 470.18 106.4Z" fill="#292929" fill-opacity="1.000000" fill-rule="nonzero"/>
		<path d="M482.59 114.56C483.47 116.22 483.43 117.96 482.49 118.47C481.55 118.97 480.07 118.04 479.18 116.39C478.29 114.74 478.34 113 479.28 112.49C480.22 111.99 481.7 112.92 482.59 114.56Z" fill="#292929" fill-opacity="1.000000" fill-rule="nonzero"/>
		<path d="M479.93 113.28C479.84 113.28 479.76 113.26 479.68 113.22L476.69 111.63C476.43 111.49 476.33 111.17 476.47 110.91C476.61 110.65 476.93 110.56 477.18 110.69L480.17 112.29C480.43 112.42 480.53 112.74 480.39 113C480.3 113.18 480.11 113.28 479.93 113.28Z" fill="#292929" fill-opacity="1.000000" fill-rule="nonzero"/>
		<path d="M462.67 116.28C463.55 117.93 463.51 119.68 462.57 120.19C461.63 120.69 460.14 119.76 459.26 118.11C458.37 116.46 458.42 114.72 459.36 114.21C460.3 113.71 461.78 114.63 462.67 116.28Z" fill="#292929" fill-opacity="1.000000" fill-rule="nonzero"/>
		<path d="M460 115C459.92 115 459.84 114.98 459.76 114.94L456.77 113.34C456.51 113.21 456.41 112.89 456.55 112.63C456.69 112.37 457.01 112.28 457.26 112.41L460.25 114C460.51 114.14 460.61 114.46 460.47 114.72C460.38 114.9 460.19 115 460 115Z" fill="#292929" fill-opacity="1.000000" fill-rule="nonzero"/>
		<path d="M469.74 132.53C471.43 135.81 473.44 137.67 475.35 137.67C478.07 137.67 480.23 133.95 480.96 128.09C474.34 132.3 472.13 132.7 469.74 132.53ZM475.35 138.73C472.83 138.73 470.35 136.39 468.38 132.14C468.29 131.97 468.31 131.77 468.42 131.61C468.53 131.46 468.71 131.38 468.91 131.39C469.45 131.45 470.01 131.5 470.55 131.5C472.59 131.5 475.01 130.7 481.32 126.6C481.49 126.49 481.71 126.49 481.88 126.59C482.06 126.7 482.15 126.89 482.13 127.09C481.47 134.27 478.87 138.73 475.35 138.73Z" fill="#292929" fill-opacity="1.000000" fill-rule="nonzero"/>
		<path d="M473.87 138.32C473.82 138.32 473.78 138.32 473.73 138.3C473.45 138.23 473.28 137.94 473.36 137.65C474.29 134.24 478.08 131.69 480.58 131.84C480.87 131.86 481.09 132.11 481.07 132.4C481.05 132.69 480.83 132.91 480.51 132.89C478.39 132.76 475.16 135.06 474.38 137.93C474.32 138.17 474.1 138.32 473.87 138.32Z" fill="#292929" fill-opacity="1.000000" fill-rule="nonzero"/>
		<path d="M410.38 228.09C415.39 223.22 439.33 191.54 448.64 180.22C457.96 168.89 468.71 168.61 483.33 168.46C479.73 154.04 480.69 153.72 481.4 153.86C482.12 154.01 495.78 156.99 509.39 147.53C513 146.56 512.85 161.01 516.29 162.88C519.73 164.74 542.66 160.01 553.99 171.33C565.31 182.65 573.19 209.46 573.19 209.46C567.03 219.35 525.18 250.45 472.58 236.11C471.58 231.67 464.41 224.79 462.26 216.05C453.37 227.66 447.07 236.26 447.07 236.26C447.07 236.26 418.83 234.39 410.38 228.09Z" fill="#FAAD3A" fill-opacity="1.000000" fill-rule="nonzero"/>
		<path d="M494.3 172.81C488.54 172.81 484.53 170.48 482.95 168.83C482.75 168.62 482.75 168.29 482.96 168.08C483.17 167.88 483.51 167.89 483.71 168.1C486.67 171.2 498.82 176.76 515.23 162.19C515.44 162 515.78 162.02 515.97 162.24C516.17 162.46 516.15 162.79 515.93 162.99C507.45 170.51 500.01 172.81 494.3 172.81Z" fill="#292929" fill-opacity="1.000000" fill-rule="nonzero"/>
		<path d="M491.26 172.67C491.03 172.67 490.82 172.53 490.75 172.3C490.56 171.67 486.06 156.87 485.59 154.78C485.52 154.49 485.7 154.21 485.98 154.14C486.27 154.08 486.55 154.26 486.62 154.54C487.08 156.6 491.72 171.84 491.77 171.99C491.85 172.27 491.69 172.57 491.41 172.65C491.36 172.67 491.31 172.67 491.26 172.67Z" fill="#292929" fill-opacity="1.000000" fill-rule="nonzero"/>
		<path d="M497.47 172.58C497.24 172.58 497.04 172.43 496.96 172.21L491.42 154.53C491.34 154.25 491.49 153.96 491.77 153.87C492.05 153.78 492.34 153.94 492.43 154.21L497.97 171.89C498.06 172.17 497.91 172.47 497.63 172.55C497.58 172.57 497.52 172.58 497.47 172.58Z" fill="#292929" fill-opacity="1.000000" fill-rule="nonzero"/>
		<path d="M503.97 170.67C503.75 170.67 503.54 170.52 503.47 170.3L497.92 153.39C497.83 153.11 497.98 152.81 498.26 152.72C498.53 152.63 498.84 152.78 498.93 153.06L504.47 169.97C504.56 170.25 504.41 170.55 504.13 170.64C504.08 170.66 504.02 170.67 503.97 170.67Z" fill="#292929" fill-opacity="1.000000" fill-rule="nonzero"/>
		<path d="M509.89 167.61C509.67 167.61 509.45 167.46 509.39 167.23L504.7 151.37C504.62 151.09 504.78 150.8 505.06 150.71C505.34 150.63 505.63 150.79 505.72 151.07L510.4 166.93C510.48 167.21 510.32 167.5 510.04 167.59C509.99 167.6 509.94 167.61 509.89 167.61Z" fill="#292929" fill-opacity="1.000000" fill-rule="nonzero"/>
		<path d="M479.75 148.22C479.7 148.22 479.64 148.21 479.59 148.21C479.3 148.21 479.07 147.96 479.07 147.67C479.08 147.38 479.29 147.16 479.61 147.16C483.36 147.29 493.41 144 499.83 136.08C500.01 135.85 500.35 135.82 500.57 136C500.8 136.18 500.83 136.52 500.65 136.74C494.1 144.83 483.78 148.22 479.75 148.22Z" fill="#292929" fill-opacity="1.000000" fill-rule="nonzero"/>
		<path d="M464.27 221.88C464.06 221.88 463.87 221.76 463.78 221.56C460.29 213.61 460.01 205.68 460.01 203.44C460.01 203.14 460.25 202.91 460.54 202.91C460.83 202.91 461.07 203.14 461.07 203.44C461.07 205 461.25 213.18 464.75 221.14C464.87 221.41 464.75 221.72 464.48 221.84C464.41 221.87 464.34 221.88 464.27 221.88Z" fill="#292929" fill-opacity="1.000000" fill-rule="nonzero"/>
		<path d="M541.23 231.91C541 231.91 540.79 231.76 540.73 231.53C540.68 231.37 535.97 215.27 533.99 209.19C533.9 208.91 534.06 208.62 534.33 208.52C534.61 208.44 534.91 208.59 535 208.86C536.98 214.96 541.69 231.07 541.74 231.24C541.82 231.52 541.66 231.81 541.38 231.89C541.33 231.91 541.28 231.91 541.23 231.91Z" fill="#292929" fill-opacity="1.000000" fill-rule="nonzero"/>
		<path d="M506.6 131.73C504.97 131.73 503.07 131.19 501.05 130.13C500.79 129.99 500.69 129.67 500.83 129.42C500.96 129.16 501.28 129.06 501.54 129.19C503.95 130.46 506.11 130.93 507.78 130.55C511.71 129.66 513.34 122.78 513.34 119.29C513.34 119.06 513.49 118.86 513.7 118.79C513.91 118.72 514.15 118.79 514.29 118.97C516.08 121.3 518.2 122.39 520.94 122.39C523.62 122.21 526.2 119.25 526.53 116.92C526.57 116.63 526.85 116.43 527.13 116.48C527.42 116.52 527.62 116.78 527.58 117.07C527.18 119.84 524.21 123.23 520.97 123.45C520.97 123.45 520.97 123.45 520.97 123.45C518.33 123.45 516.15 122.53 514.34 120.65C513.97 124.97 511.94 130.69 508.01 131.58C507.57 131.68 507.1 131.73 506.6 131.73Z" fill="#FEFEFE" fill-opacity="1.000000" fill-rule="nonzero"/>
		<path d="M465.81 1.05C447.84 1.05 427.54 3.41 405.46 8.06C358.8 17.9 311.42 36.73 313.88 101.76C316.38 167.84 340.76 207.18 388.42 222.03C410.3 228.84 447.94 235.72 482.72 235.72C482.72 235.72 482.73 235.72 482.73 235.72C514.09 235.72 554.23 230.22 567.4 204.03C580.67 177.66 582.96 147.28 582.55 126.45C582.07 102.53 577.66 78.25 571.02 63.08C563.6 46.12 543.89 1.05 465.81 1.05ZM482.73 236.78C482.73 236.78 482.73 236.78 482.72 236.78C445.44 236.78 408.45 229.37 388.11 223.03C339.96 208.04 315.34 168.38 312.82 101.8C311.66 70.85 322.21 46.95 344.21 30.76C362.41 17.35 385.28 11.24 405.24 7.03C427.39 2.36 447.77 0 465.81 0C498.35 0 524.39 7.67 543.23 22.82C558.73 35.28 566.74 50.66 571.99 62.66C578.68 77.95 583.13 102.38 583.61 126.42C584.02 147.38 581.71 177.94 568.35 204.5C554.93 231.18 514.39 236.78 482.73 236.78Z" fill="#292929" fill-opacity="1.000000" fill-rule="nonzero"/>
		<path d="M360.06 54.7L318.66 54.7C311.46 54.7 305.96 60.89 306.4 68.37L307.51 87.4C307.92 94.33 313.73 99.77 320.46 99.67L350.42 99.21C351.99 103.86 353.13 108.39 356.13 108.17C358.27 107.96 359.19 103.42 359.8 99.04C366.08 98.65 371.26 93.3 371.49 86.7L372.17 68.08C372.43 60.75 367.03 54.7 360.06 54.7Z" fill="#FEFEFE" fill-opacity="1.000000" fill-rule="nonzero"/>
		<path d="M350.42 98.69C350.65 98.69 350.85 98.83 350.92 99.05C351.08 99.51 351.23 99.97 351.38 100.43C352.69 104.4 353.83 107.81 356.09 107.64C358.1 107.44 358.95 101.29 359.28 98.97C359.31 98.72 359.52 98.53 359.77 98.52C365.82 98.14 370.74 92.94 370.97 86.68L371.64 68.06C371.77 64.54 370.5 61.13 368.16 58.7C366 56.46 363.12 55.23 360.06 55.23L318.66 55.23C315.45 55.23 312.48 56.51 310.27 58.85C307.94 61.33 306.72 64.79 306.93 68.34L308.04 87.37C308.42 93.86 313.91 99.14 320.28 99.14L320.46 99.14L350.41 98.69C350.42 98.69 350.42 98.69 350.42 98.69ZM355.92 108.7C352.98 108.7 351.78 105.02 350.38 100.76C350.27 100.43 350.16 100.09 350.04 99.75L320.28 100.2C313.24 100.2 307.41 94.59 306.99 87.43L305.87 68.41C305.65 64.56 306.97 60.81 309.51 58.12C311.91 55.58 315.16 54.17 318.66 54.17L360.06 54.17C363.41 54.17 366.56 55.52 368.92 57.97C371.46 60.6 372.83 64.29 372.7 68.09L372.02 86.72C371.78 93.37 366.66 98.91 360.26 99.54C359.59 104.2 358.61 108.45 356.18 108.69C356.08 108.7 356 108.7 355.92 108.7Z" fill="#292929" fill-opacity="1.000000" fill-rule="nonzero"/>
		<path d="M326.63 77.77C326.63 80.06 324.81 81.92 322.57 81.92C320.33 81.92 318.51 80.06 318.51 77.77C318.51 75.47 320.33 73.61 322.57 73.61C324.81 73.61 326.63 75.47 326.63 77.77Z" fill="#40BDDE" fill-opacity="1.000000" fill-rule="nonzero"/>
		<path d="M342.68 77.77C342.68 80.06 340.86 81.92 338.62 81.92C336.38 81.92 334.56 80.06 334.56 77.77C334.56 75.47 336.38 73.61 338.62 73.61C340.86 73.61 342.68 75.47 342.68 77.77Z" fill="#40BDDE" fill-opacity="1.000000" fill-rule="nonzero"/>
		<path d="M358.73 77.77C358.73 80.06 356.91 81.92 354.67 81.92C352.42 81.92 350.61 80.06 350.61 77.77C350.61 75.47 352.42 73.61 354.67 73.61C356.91 73.61 358.73 75.47 358.73 77.77Z" fill="#40BDDE" fill-opacity="1.000000" fill-rule="nonzero"/>
		<path d="M493.23 412.41L452.12 412.41C451.82 412.41 451.59 412.18 451.59 411.88C451.59 411.59 451.82 411.36 452.12 411.36L493.23 411.36C493.52 411.36 493.75 411.59 493.75 411.88C493.75 412.18 493.52 412.41 493.23 412.41Z" fill="#292929" fill-opacity="1.000000" fill-rule="nonzero"/>
		<path d="M371.73 262.77C359.55 256.9 357.25 243.71 375.03 238.7C362.56 223.36 375.17 214.47 383.63 212.75C392.08 211.03 408.85 215.33 425.05 229.24C441.24 243.14 448.26 243.86 453.14 254.75C458.01 265.64 455.72 274.1 450.84 285.13C445.97 296.17 445.4 299.61 454.86 308.49C464.32 317.38 472.05 326.27 465.46 343.04C458.87 359.81 380.04 353.64 376.32 342.18C372.59 330.71 381.47 288.72 381.47 288.72L371.73 262.77Z" fill="#292929" fill-opacity="1.000000" fill-rule="nonzero"/>
		<path d="M362.7 331.43C360.84 323.26 363 304.5 379.32 295.16C391.23 288.36 397.53 297.89 397.53 297.89L399.39 329.28C399.39 329.28 366.71 331.57 362.7 331.43Z" fill="#292929" fill-opacity="1.000000" fill-rule="nonzero"/>
		<path d="M270.97 284.27C269.54 282.27 267.39 279.52 265.39 280.95C263.38 282.39 266.57 294.03 275.56 292.59C273.26 289.15 270.97 284.27 270.97 284.27Z" fill="#FEFEFE" fill-opacity="1.000000" fill-rule="nonzero"/>
		<path d="M266.56 281.08C266.26 281.08 265.98 281.18 265.69 281.38C265.3 281.66 265.12 283.17 265.79 285.28C266.86 288.61 269.59 292.18 274.05 292.18L274.05 292.18C274.25 292.18 274.45 292.17 274.65 292.16C272.53 288.8 270.51 284.54 270.49 284.5C269.79 283.53 268.05 281.08 266.56 281.08ZM274.05 293.24L274.05 293.24C269.02 293.24 265.91 289.12 264.78 285.6C264.2 283.77 263.93 281.35 265.08 280.52C265.54 280.19 266.04 280.03 266.56 280.03C268.34 280.03 269.94 281.92 271.4 283.97C271.47 284.1 273.75 288.93 276 292.29C276.1 292.44 276.12 292.63 276.04 292.8C275.97 292.96 275.82 293.08 275.64 293.11C275.11 293.19 274.57 293.24 274.05 293.24Z" fill="#292929" fill-opacity="1.000000" fill-rule="nonzero"/>
		<path d="M296.34 285.56C291.47 283.99 288.31 280.12 289.89 276.96C291.47 273.81 296.63 277.97 300.21 280.83C303.79 283.7 307.23 284.27 307.23 284.27C307.23 284.27 301.93 287 296.34 285.56Z" fill="#FEFEFE" fill-opacity="1.000000" fill-rule="nonzero"/>
		<path d="M291.7 276.36C291.07 276.36 290.65 276.63 290.36 277.2C289.9 278.13 289.89 279.15 290.34 280.22C291.19 282.25 293.55 284.1 296.5 285.06C297.51 285.32 298.61 285.45 299.75 285.45C302.15 285.45 304.28 284.86 305.6 284.38C304.22 283.92 302.08 283.01 299.88 281.25C297.26 279.15 293.78 276.36 291.7 276.36ZM299.75 286.51C298.52 286.51 297.33 286.36 296.21 286.07C292.94 285.02 290.33 282.93 289.36 280.63C288.8 279.28 288.82 277.93 289.42 276.73C289.88 275.8 290.67 275.31 291.7 275.31C294.15 275.31 297.65 278.11 300.47 280.37C303.96 283.16 307.29 283.75 307.32 283.75C307.54 283.79 307.72 283.97 307.76 284.19C307.79 284.42 307.68 284.64 307.47 284.74C307.33 284.81 303.99 286.51 299.75 286.51Z" fill="#292929" fill-opacity="1.000000" fill-rule="nonzero"/>
		<path d="M301.45 329.56C301.07 321.15 300.12 304.34 298.78 298.99C297.44 293.64 289.03 295.16 288.46 294.97C287.88 294.78 277.42 298.75 272.26 288.29C267.1 277.82 271.26 273.95 274.12 274.96C275.13 271.52 277.99 272.52 279.57 274.24C281.01 271.23 285.16 274.38 286.16 278.25C287.17 282.12 288.17 285.56 296.2 284.56C304.22 283.56 314.11 281.26 317.98 292.87C321.85 304.48 325.01 322.54 325.01 322.54C325.01 322.54 323.48 334.01 301.45 329.56Z" fill="#FEFEFE" fill-opacity="1.000000" fill-rule="nonzero"/>
		<path d="M301.96 329.13C305.14 329.75 308.05 330.06 310.64 330.06C322.66 330.06 324.32 323.32 324.47 322.54C324.22 321.15 321.15 304.06 317.48 293.04C314.87 285.21 309.5 284.21 305.11 284.21C302.79 284.21 300.39 284.53 298.06 284.85C297.45 284.93 296.85 285.01 296.26 285.08C295.3 285.2 294.41 285.26 293.61 285.26C287.44 285.26 286.49 281.61 285.65 278.39C284.95 275.67 282.72 273.57 281.27 273.57C280.74 273.57 280.34 273.86 280.05 274.47C279.97 274.63 279.82 274.74 279.65 274.76C279.47 274.79 279.3 274.73 279.18 274.6C278.39 273.73 277.38 273.19 276.55 273.19C275.65 273.19 275 273.83 274.63 275.1C274.59 275.24 274.49 275.36 274.37 275.43C274.24 275.49 274.09 275.5 273.95 275.45C272.91 275.09 271.75 275.57 271.08 276.65C270.41 277.72 269.25 280.97 272.74 288.05C275.02 292.68 278.66 295.03 283.57 295.03C285.28 295.03 286.72 294.74 287.57 294.57C287.98 294.49 288.22 294.44 288.4 294.44C288.45 294.44 288.57 294.45 288.62 294.47C288.82 294.46 289.04 294.45 289.31 294.44C289.77 294.41 290.39 294.38 291.09 294.38C295.79 294.38 298.55 295.89 299.29 298.86C300.73 304.61 301.68 322.96 301.96 329.13ZM310.64 331.12C307.87 331.12 304.75 330.77 301.35 330.08C301.11 330.03 300.94 329.83 300.92 329.59C300.67 323.9 299.71 304.9 298.27 299.12C297.65 296.68 295.24 295.44 291.09 295.44C290.41 295.44 289.81 295.47 289.36 295.49C288.84 295.52 288.55 295.53 288.37 295.5C288.26 295.51 288.06 295.55 287.78 295.6C286.88 295.78 285.38 296.08 283.57 296.08C278.3 296.08 274.23 293.47 271.79 288.52C268.2 281.24 269.24 277.61 270.18 276.1C271.01 274.76 272.41 274.08 273.78 274.32C274.51 272.43 275.8 272.13 276.55 272.13C277.5 272.13 278.56 272.6 279.47 273.4C279.93 272.82 280.55 272.51 281.27 272.51C283.38 272.51 285.9 275.13 286.67 278.12C287.52 281.39 288.25 284.21 293.61 284.21C294.37 284.21 295.22 284.15 296.13 284.04C296.72 283.96 297.32 283.88 297.92 283.8C300.28 283.48 302.72 283.15 305.11 283.15C309.48 283.15 315.63 284.15 318.48 292.7C322.32 304.22 325.49 322.27 325.53 322.45C325.53 322.5 325.54 322.56 325.53 322.61C325.52 322.7 324.24 331.12 310.64 331.12Z" fill="#292929" fill-opacity="1.000000" fill-rule="nonzero"/>
		<path d="M276.34 293.89C276.23 293.89 276.12 293.86 276.02 293.78C272.78 291.28 270.62 287.53 269.62 282.65C269.56 282.36 269.75 282.08 270.03 282.02C270.32 281.96 270.6 282.15 270.66 282.43C271.61 287.06 273.63 290.6 276.67 292.95C276.9 293.13 276.94 293.46 276.76 293.69C276.66 293.82 276.5 293.89 276.34 293.89Z" fill="#292929" fill-opacity="1.000000" fill-rule="nonzero"/>
		<path d="M289.89 291.97C289.88 291.97 289.88 291.97 289.87 291.97C286.92 291.84 284.47 290.58 282.6 288.21C279.02 283.7 278.62 276.41 279.05 274.14C279.1 273.85 279.38 273.66 279.67 273.72C279.96 273.78 280.14 274.05 280.09 274.34C279.7 276.4 280.11 283.37 283.43 287.56C285.1 289.67 287.28 290.8 289.91 290.91C290.2 290.93 290.43 291.17 290.42 291.46C290.41 291.75 290.17 291.97 289.89 291.97Z" fill="#292929" fill-opacity="1.000000" fill-rule="nonzero"/>
		<path d="M284.3 295.84C284.29 295.84 284.27 295.84 284.26 295.83C281.5 295.6 279.2 294.32 277.41 292.01C273.2 286.55 273.22 277.06 273.6 274.87C273.66 274.58 273.93 274.38 274.22 274.44C274.5 274.49 274.7 274.76 274.65 275.05C274.28 277.14 274.25 286.19 278.25 291.37C279.84 293.43 281.89 294.58 284.35 294.78C284.64 294.81 284.85 295.06 284.83 295.35C284.8 295.63 284.57 295.84 284.3 295.84Z" fill="#292929" fill-opacity="1.000000" fill-rule="nonzero"/>
		<path d="M383.63 339.02C388.36 341.17 402.11 346.05 427.05 339.74C426.19 356.94 424.47 393.2 424.47 393.2C424.47 393.2 403.69 404.95 389.79 400.08C385.92 393.49 383.63 339.02 383.63 339.02Z" fill="#292929" fill-opacity="1.000000" fill-rule="nonzero"/>
		<path d="M387.88 325.41C392.04 324.84 396.52 323.26 396.09 316.38C395.66 309.5 394.52 300.47 394.52 300.47C383.77 300.32 373.16 294.74 368.29 283.7C363.42 272.66 369.87 266.93 373.45 255.46C377.03 244 383.77 234.54 398.82 235.54C413.87 236.55 421.89 243.71 421.89 243.71C419.31 257.18 416.73 276.25 422.32 277.39C427.91 278.54 429.35 268.65 429.35 268.65C437.8 264.49 446.66 269.55 443.25 276.96C439.09 285.99 429.2 281.41 429.2 281.41C427.2 286.57 418.74 292.3 418.74 292.3C420.03 302.91 421.31 320.45 429.34 321.45C426.04 338.22 424.33 344.33 424.33 344.33C424.33 344.33 395.52 351.35 385.06 341.03C385.49 337.45 387.88 325.41 387.88 325.41Z" fill="#FEFEFE" fill-opacity="1.000000" fill-rule="nonzero"/>
		<path d="M385.61 340.83C389.33 344.35 395.73 346.13 404.64 346.13C413.58 346.13 422.2 344.27 423.9 343.88C424.27 342.48 425.92 336.06 428.72 321.88C421.43 320.28 419.77 305.83 418.55 295.2C418.43 294.22 418.32 293.26 418.22 292.36C418.19 292.17 418.28 291.97 418.44 291.86C418.53 291.81 426.79 286.16 428.71 281.21C428.76 281.08 428.87 280.97 429 280.92C429.14 280.86 429.29 280.87 429.42 280.93C429.45 280.94 431.87 282.04 434.74 282.04C438.45 282.04 441.15 280.26 442.77 276.74C443.75 274.61 443.71 272.61 442.64 270.95C441.33 268.9 438.67 267.68 435.53 267.68C433.64 267.68 431.67 268.14 429.82 269.01C429.55 270.59 428 278.01 423.2 278.01C422.88 278.01 422.55 277.98 422.22 277.91C417.51 276.94 417.2 265.51 421.31 243.92C419.92 242.79 412.09 236.96 398.78 236.07C386.28 235.24 378.39 241.42 373.95 255.62C372.93 258.91 371.64 261.78 370.51 264.31C367.64 270.73 365.38 275.8 368.77 283.49C373.19 293.48 383.05 299.79 394.52 299.94C394.79 299.94 395.01 300.14 395.04 300.4C395.05 300.49 396.19 309.53 396.62 316.34C397.07 323.57 392.22 325.29 388.33 325.88C387.93 327.87 386.06 337.41 385.61 340.83ZM404.64 347.19C395.29 347.19 388.58 345.24 384.69 341.41C384.57 341.29 384.51 341.13 384.53 340.97C384.96 337.4 387.27 325.8 387.36 325.31C387.41 325.09 387.59 324.92 387.81 324.89C391.87 324.33 395.97 322.88 395.57 316.41C395.2 310.5 394.29 302.9 394.05 300.99C382.36 300.67 372.33 294.16 367.81 283.91C364.22 275.79 366.57 270.54 369.55 263.88C370.72 261.25 371.94 258.53 372.94 255.31C377.49 240.77 385.94 234.15 398.85 235.02C413.91 236.02 421.91 243.02 422.24 243.32C422.38 243.44 422.45 243.63 422.41 243.81C418.54 264.03 418.54 276.08 422.43 276.88C422.69 276.93 422.95 276.96 423.2 276.96C427.56 276.96 428.81 268.66 428.82 268.57C428.85 268.4 428.96 268.25 429.11 268.18C431.18 267.16 433.4 266.63 435.53 266.63C439.03 266.63 442.03 268.03 443.53 270.38C444.78 272.33 444.85 274.75 443.73 277.18C441.48 282.07 437.59 283.1 434.74 283.1C432.4 283.1 430.39 282.44 429.48 282.09C427.35 286.74 420.74 291.54 419.3 292.55C419.4 293.36 419.5 294.21 419.6 295.08C420.81 305.62 422.47 320.06 429.4 320.93C429.55 320.95 429.68 321.02 429.77 321.14C429.85 321.26 429.89 321.41 429.86 321.55C426.59 338.15 424.85 344.41 424.84 344.47C424.79 344.65 424.64 344.79 424.45 344.84C424.36 344.86 414.7 347.19 404.64 347.19Z" fill="#292929" fill-opacity="1.000000" fill-rule="nonzero"/>
		<path d="M384.48 277.35C384.4 277.35 384.31 277.33 384.22 277.28C381.2 275.56 379.61 273.87 379.38 272.12C379.08 269.94 380.84 268.18 382.55 266.47C382.88 266.14 383.21 265.8 383.53 265.47C386.32 262.5 386.02 257.09 384.56 253.31C383.94 251.7 382.89 250.74 381.43 250.47C379.52 250.11 377.45 251.06 376.47 252.14C376.27 252.36 375.94 252.37 375.72 252.18C375.51 251.98 375.49 251.65 375.69 251.43C376.89 250.11 379.31 249 381.63 249.43C382.89 249.66 384.6 250.46 385.55 252.93C387.17 257.14 387.41 262.87 384.29 266.19C383.98 266.53 383.64 266.87 383.3 267.21C381.77 268.74 380.2 270.32 380.42 271.98C380.61 273.36 382.06 274.83 384.74 276.36C385 276.51 385.09 276.83 384.94 277.08C384.85 277.25 384.67 277.35 384.48 277.35Z" fill="#292929" fill-opacity="1.000000" fill-rule="nonzero"/>
		<path d="M410.38 259.48C410.21 259.48 410.04 259.4 409.94 259.25C404.37 250.94 398.45 252.08 395.41 253.51C395.15 253.63 394.83 253.52 394.71 253.25C394.58 252.99 394.7 252.67 394.96 252.55C397.65 251.29 404.58 249.36 410.82 258.66C410.98 258.9 410.92 259.23 410.67 259.39C410.58 259.45 410.48 259.48 410.38 259.48Z" fill="#292929" fill-opacity="1.000000" fill-rule="nonzero"/>
		<path d="M401.87 267C401.31 268.78 400.03 269.98 399.01 269.66C397.99 269.34 397.62 267.63 398.18 265.84C398.74 264.06 400.02 262.86 401.03 263.18C402.05 263.5 402.43 265.21 401.87 267Z" fill="#292929" fill-opacity="1.000000" fill-rule="nonzero"/>
		<path d="M401.3 264.35C401.07 264.35 400.86 264.21 400.8 263.98L399.84 260.73C399.76 260.45 399.92 260.15 400.2 260.07C400.48 259.99 400.77 260.15 400.85 260.43L401.81 263.68C401.89 263.96 401.73 264.25 401.45 264.33C401.4 264.35 401.35 264.35 401.3 264.35Z" fill="#292929" fill-opacity="1.000000" fill-rule="nonzero"/>
		<path d="M380.99 263.08C380.43 264.87 379.16 266.06 378.14 265.74C377.12 265.42 376.75 263.71 377.3 261.93C377.86 260.14 379.14 258.95 380.16 259.27C381.17 259.58 381.55 261.29 380.99 263.08Z" fill="#292929" fill-opacity="1.000000" fill-rule="nonzero"/>
		<path d="M380.42 260.44C380.2 260.44 379.99 260.29 379.92 260.06L378.96 256.81C378.88 256.53 379.04 256.23 379.32 256.15C379.6 256.07 379.89 256.23 379.98 256.51L380.93 259.76C381.01 260.04 380.85 260.33 380.57 260.41C380.52 260.43 380.47 260.44 380.42 260.44Z" fill="#292929" fill-opacity="1.000000" fill-rule="nonzero"/>
		<path d="M380.83 280.42C380.82 283.14 381.31 285.08 382.27 286.08C384.28 288.18 388.75 286.03 393.53 280.99C388.42 281.99 383.27 281.7 380.83 280.42ZM384.27 287.95C383.16 287.95 382.23 287.57 381.5 286.81C380.22 285.47 379.65 282.98 379.8 279.43C379.81 279.22 379.94 279.04 380.13 278.96C380.32 278.88 380.53 278.92 380.69 279.06C381.44 279.75 383.66 280.56 387.43 280.56C389.78 280.56 392.37 280.23 394.92 279.6C395.15 279.55 395.38 279.65 395.5 279.84C395.62 280.04 395.59 280.29 395.44 280.47C391.26 285.22 387.19 287.95 384.27 287.95Z" fill="#292929" fill-opacity="1.000000" fill-rule="nonzero"/>
		<path d="M382.05 287C381.96 287 381.87 286.98 381.79 286.93C381.53 286.78 381.45 286.46 381.59 286.21C382.83 284.05 387.88 282.7 390.89 283.72C391.17 283.81 391.32 284.11 391.22 284.39C391.13 284.67 390.83 284.81 390.55 284.72C387.83 283.79 383.43 285.13 382.51 286.73C382.41 286.9 382.23 287 382.05 287Z" fill="#292929" fill-opacity="1.000000" fill-rule="nonzero"/>
		<path d="M394.29 301.04C393.98 301.04 393.7 300.83 393.7 300.51C393.7 300.22 393.94 299.99 394.23 299.99C394.26 299.99 394.27 299.99 394.29 299.99C399.65 299.99 408.27 296.9 414.05 293.84C414.31 293.7 414.63 293.8 414.76 294.06C414.9 294.32 414.8 294.64 414.54 294.77C408.65 297.9 399.82 301.04 394.29 301.04Z" fill="#292929" fill-opacity="1.000000" fill-rule="nonzero"/>
		<path d="M301.07 327.13C303.51 327.99 315.4 327.99 325.01 322.54C326.58 331.28 332.46 357.37 332.46 357.37C340.63 348.48 351.95 338.02 357.11 333.58C362.27 329.13 370.15 324.83 377.89 325.12C385.63 325.41 389.64 324.98 389.64 324.98C389.64 324.98 383.48 335.87 386.63 366.11C389.79 396.35 390.79 400.36 390.79 400.36L380.19 399.36C380.19 399.36 382.33 392.63 375.89 384.89C369.43 377.15 367.57 372.27 366.71 366.54C359.83 373.56 341.49 393.06 326.15 393.2C310.82 393.34 305.37 379.58 303.22 362.38C301.07 345.19 301.07 327.13 301.07 327.13Z" fill="#40BDDE" fill-opacity="1.000000" fill-rule="nonzero"/>
		<path d="M419.17 393.01C414.87 394.3 396.38 399.79 387.92 399.22C379.47 398.65 370.73 394.49 363.85 396.21C356.97 397.93 345.17 406.6 346 410.04C346.65 412.69 349.8 411.26 349.8 411.26C350.95 413.69 353.24 412.4 353.24 412.4C354.39 414.84 359.69 413.41 362.84 410.68C366 407.96 369.86 406.53 374.74 408.25C379.61 409.97 387.21 412.4 396.09 412.83C404.98 413.26 425.91 412.29 425.91 412.29C425.91 412.29 429.06 399.89 419.17 393.01Z" fill="#FEFEFE" fill-opacity="1.000000" fill-rule="nonzero"/>
		<path d="M353.24 411.88C353.3 411.88 353.35 411.89 353.4 411.9C353.54 411.95 353.66 412.05 353.72 412.18C354.09 412.96 355.04 413.12 355.78 413.12C357.8 413.12 360.56 411.96 362.5 410.29C366.31 406.99 370.41 406.16 374.92 407.75C380.31 409.66 387.6 411.89 396.12 412.31C397.61 412.38 399.55 412.42 401.89 412.42C410.78 412.42 423.1 411.89 425.48 411.78C425.88 409.69 427.36 399.53 419.08 393.59C410.74 396.08 395.43 400.26 387.89 399.75C384.53 399.52 381.13 398.73 377.85 397.97C374.17 397.13 370.7 396.32 367.49 396.32C366.2 396.32 365.05 396.45 363.97 396.72C357.05 398.45 345.8 406.96 346.52 409.91C346.72 410.73 347.2 411.12 348.04 411.12C348.82 411.12 349.58 410.78 349.58 410.78C349.85 410.66 350.16 410.77 350.28 411.03C350.65 411.83 351.18 412.22 351.89 412.22C352.48 412.22 352.98 411.95 352.98 411.94C353.06 411.9 353.15 411.88 353.24 411.88ZM355.78 414.18C354.27 414.18 353.46 413.64 353.03 413.07C352.74 413.17 352.33 413.27 351.89 413.27C351.19 413.27 350.24 413.02 349.56 411.91C349.18 412.03 348.63 412.17 348.04 412.17C346.71 412.17 345.8 411.46 345.49 410.16C344.49 406.06 357.11 397.35 363.72 395.7C364.88 395.41 366.11 395.27 367.49 395.27C370.82 395.27 374.35 396.08 378.09 396.95C381.33 397.7 384.69 398.47 387.96 398.69C395.4 399.21 410.82 394.97 419.02 392.51C419.18 392.46 419.34 392.49 419.47 392.58C429.55 399.59 426.45 412.29 426.42 412.42C426.36 412.64 426.16 412.8 425.93 412.81C425.79 412.82 411.75 413.47 401.89 413.47C401.89 413.47 401.89 413.47 401.89 413.47C399.53 413.47 397.58 413.43 396.07 413.36C387.41 412.94 380.03 410.68 374.56 408.75C370.42 407.28 366.71 408.04 363.19 411.08C361.08 412.91 358.03 414.18 355.78 414.18Z" fill="#292929" fill-opacity="1.000000" fill-rule="nonzero"/>
		<path d="M443.68 388.18L444.68 376.14L447.98 387.32L443.68 388.18ZM484.1 382.88C477.79 365.97 472.34 347.62 467.18 339.31C462.02 331 455.86 323.26 444.39 322.11C436.08 321.54 428.63 321.25 428.63 321.25C425.91 328.42 417.16 363.1 421.75 392.2C419.74 392.2 418.31 393.34 418.31 393.34C422.9 397.07 425.48 403.81 424.33 412.83C444.25 414.41 465.32 411.26 472.2 409.54C479.08 407.82 490.4 399.79 484.1 382.88Z" fill="#40BDDE" fill-opacity="1.000000" fill-rule="nonzero"/>
		<path d="M293.38 285.18C293.1 285.18 292.87 284.96 292.85 284.68C292.83 284.39 293.05 284.14 293.34 284.12C294.33 284.06 295.51 283.95 296.8 283.83C301.14 283.42 306.53 282.91 309.75 283.74C310.03 283.82 310.2 284.1 310.13 284.39C310.05 284.67 309.77 284.84 309.48 284.77C306.44 283.98 301.15 284.48 296.9 284.88C295.6 285 294.4 285.12 293.41 285.18C293.4 285.18 293.39 285.18 293.38 285.18Z" fill="#292929" fill-opacity="1.000000" fill-rule="nonzero"/>
		<path d="M367.14 369.51C366.89 369.51 366.67 369.33 366.62 369.08C365.67 364.29 366.74 358.14 368.23 354.17C368.33 353.9 368.63 353.76 368.9 353.86C369.18 353.97 369.32 354.27 369.21 354.54C368.14 357.4 366.61 363.63 367.66 368.87C367.72 369.16 367.53 369.44 367.25 369.49C367.21 369.5 367.18 369.51 367.14 369.51Z" fill="#292929" fill-opacity="1.000000" fill-rule="nonzero"/>
		<path d="M418.63 393.49C418.39 393.49 418.18 393.33 418.12 393.09C418.04 392.81 418.21 392.52 418.49 392.45C423.13 391.22 452.17 385.52 462.41 384.65C462.69 384.62 462.95 384.84 462.98 385.13C463 385.42 462.79 385.67 462.5 385.7C452.3 386.57 423.38 392.25 418.76 393.47C418.72 393.48 418.67 393.49 418.63 393.49Z" fill="#292929" fill-opacity="1.000000" fill-rule="nonzero"/>
		<path d="M445.4 378.54C445.17 378.54 444.97 378.39 444.89 378.17C443.86 374.93 441.31 364.7 440.08 359.78L439.73 358.36C439.66 358.07 439.83 357.79 440.11 357.72C440.39 357.65 440.68 357.82 440.75 358.1L441.11 359.53C442.33 364.43 444.87 374.64 445.9 377.85C445.99 378.12 445.84 378.42 445.56 378.51C445.5 378.53 445.45 378.54 445.4 378.54Z" fill="#292929" fill-opacity="1.000000" fill-rule="nonzero"/>
		<path d="M353.24 412.93C353.22 412.93 353.21 412.93 353.19 412.93C352.9 412.9 352.69 412.65 352.71 412.36C352.89 410.44 360.61 404 367.57 402.01C367.85 401.92 368.14 402.09 368.22 402.37C368.3 402.65 368.14 402.94 367.86 403.02C360.85 405.03 353.88 411.21 353.77 412.45C353.74 412.73 353.51 412.93 353.24 412.93Z" fill="#292929" fill-opacity="1.000000" fill-rule="nonzero"/>
		<path d="M349.8 411.79C349.51 411.79 349.27 411.55 349.27 411.26C349.27 408.5 355.06 402.69 364.12 399.86C364.4 399.77 364.69 399.93 364.78 400.21C364.87 400.49 364.71 400.78 364.43 400.87C355.13 403.78 350.33 409.47 350.33 411.26C350.33 411.55 350.09 411.79 349.8 411.79Z" fill="#292929" fill-opacity="1.000000" fill-rule="nonzero"/>
		<path d="M387.2 410.85L341.94 410.85L323.73 357.65C322.14 353.01 316.83 349.22 311.92 349.22L234.63 349.22C229.73 349.22 227.02 353.01 228.6 357.65L247.37 412.45C249.42 417.77 249.66 422.15 254.99 422.15L387.2 422.15C390.32 422.15 392.85 419.62 392.85 416.49C392.85 413.37 390.32 410.85 387.2 410.85Z" fill="#FAAD3A" fill-opacity="1.000000" fill-rule="nonzero"/>
		<path d="M337.95 412.36L248.06 412.36C247.77 412.36 247.53 412.12 247.53 411.83C247.53 411.54 247.77 411.3 248.06 411.3L337.95 411.3C338.24 411.3 338.48 411.54 338.48 411.83C338.48 412.12 338.24 412.36 337.95 412.36Z" fill="#292929" fill-opacity="1.000000" fill-rule="nonzero"/>
		<path d="M279.23 376.87C277.9 376.87 276.8 377.39 276.05 378.39C274.97 379.83 274.74 382.04 275.44 384.45C276.69 388.79 280.54 392.32 284 392.32C285.33 392.32 286.43 391.8 287.18 390.8C288.26 389.35 288.49 387.15 287.79 384.74C286.54 380.4 282.7 376.87 279.23 376.87ZM284 393.38C280.1 393.38 275.8 389.5 274.42 384.74C273.64 382.01 273.92 379.47 275.21 377.76C276.15 376.5 277.58 375.81 279.23 375.81C283.14 375.81 287.43 379.69 288.81 384.45C289.6 387.17 289.31 389.72 288.02 391.43C287.08 392.69 285.65 393.38 284 393.38Z" fill="#292929" fill-opacity="1.000000" fill-rule="nonzero"/>
	</g>
</svg>
