<svg width="17.956055" height="18.000000" viewBox="0 0 17.9561 18" fill="none" xmlns="http://www.w3.org/2000/svg" xmlns:xlink="http://www.w3.org/1999/xlink">
	<desc>
			Created with Pixso.
	</desc>
	<defs/>
	<path d="M5.08 14.89L5.38 15.08C6.5 15.74 7.77 16.1 9.06 16.1C13.04 16.1 16.27 12.86 16.27 8.89C16.27 4.91 13.04 1.68 9.06 1.68C5.09 1.68 1.85 4.91 1.85 8.89C1.85 10.2 2.22 11.49 2.91 12.62L3.09 12.93L2.37 15.62L5.08 14.89ZM0 18L1.29 13.18C0.55 11.86 0.17 10.39 0.17 8.89C0.17 3.98 4.16 0 9.06 0C13.96 0 17.95 3.98 17.95 8.89C17.95 13.79 13.96 17.78 9.06 17.78C7.59 17.78 6.14 17.4 4.83 16.7L0 18Z" fill="#FFFFFF" fill-opacity="1.000000" fill-rule="nonzero"/>
	<path d="M12.37 10.12C12 9.9 11.53 9.66 11.09 9.83C10.76 9.97 10.55 10.49 10.34 10.75C10.23 10.89 10.1 10.91 9.93 10.84C8.69 10.35 7.74 9.52 7.05 8.38C6.93 8.2 6.95 8.06 7.1 7.89C7.3 7.65 7.56 7.37 7.62 7.05C7.67 6.72 7.52 6.33 7.38 6.04C7.21 5.67 7.02 5.13 6.64 4.92C6.3 4.73 5.85 4.84 5.54 5.09C5.01 5.52 4.75 6.19 4.76 6.86C4.76 7.05 4.79 7.24 4.83 7.43C4.94 7.87 5.14 8.28 5.37 8.67C5.55 8.97 5.73 9.25 5.94 9.53C6.6 10.43 7.43 11.21 8.38 11.8C8.86 12.09 9.38 12.35 9.91 12.53C10.51 12.72 11.04 12.93 11.68 12.81C12.36 12.68 13.03 12.26 13.3 11.61C13.37 11.42 13.41 11.2 13.37 11C13.28 10.58 12.71 10.33 12.37 10.12Z" fill="#FFFFFF" fill-opacity="1.000000" fill-rule="evenodd"/>
</svg>
