<svg width="196.380859" height="38.000000" viewBox="0 0 196.381 38" fill="none" xmlns="http://www.w3.org/2000/svg" xmlns:xlink="http://www.w3.org/1999/xlink">
	<desc>
			Created with Pixso.
	</desc>
	<defs/>
	<path d="M12.43 37.41L5.04 37.41L5.04 18.97L0 18.97L0 12.96L5.04 12.96L5.04 8.69C5.04 3.63 7.26 0 14.65 0C16.21 0 18.66 0.31 18.66 0.31L18.66 5.89L16.08 5.89C13.46 5.89 12.43 6.68 12.43 8.89L12.43 12.96L18.56 12.96L18.01 18.97L12.43 18.97L12.43 37.41ZM29.41 12.48C29.31 12.48 29.19 12.49 29.09 12.49C22.23 12.49 19.08 17.65 19.08 24.98C19.08 34.2 23.16 37.9 29.14 37.9C32.56 37.9 34.81 36.46 36.18 33.77L36.18 37.42L43.21 37.42L43.21 12.97L36.18 12.97L36.18 16.73C35.06 14.31 32.75 12.51 29.41 12.48ZM31.21 18.26C34.09 18.26 35.82 20.27 35.82 23.69L35.82 27.18C35.82 29.48 34.39 32.18 31.21 32.18C26.3 32.18 26.43 26.89 26.43 25.12C26.43 19.19 29.04 18.26 31.21 18.26ZM46.06 25.2C46.06 22.23 45.92 12.5 58.58 12.5C63.67 12.5 65.79 14.12 65.79 14.12L64.09 19.42C64.09 19.42 61.97 18.25 59.2 18.25C55.66 18.25 53.41 20.3 53.41 23.91L53.41 26.5C53.41 29.97 55.59 32.28 59.21 32.28C61.73 32.28 64.05 31.1 64.05 31.1L65.75 36.28C65.75 36.28 63.81 37.91 58.62 37.91C46.55 37.9 46.06 29.18 46.06 25.2ZM107.06 12.49C113.92 12.49 117.11 17.65 117.11 24.98C117.11 34.2 113.04 37.9 107.06 37.9C103.63 37.9 101.1 36.46 99.74 33.77L99.74 37.42L92.79 37.41L92.79 0.74L100.16 0.09L100.16 16.39C101.23 13.54 104.73 12.49 107.06 12.49ZM104.99 18.26C102.11 18.26 100.16 20.27 100.16 23.69L100.16 27.18C100.15 29.48 101.5 32.18 104.99 32.18C109.89 32.18 109.76 26.89 109.76 25.12C109.76 19.19 107.15 18.26 104.99 18.26ZM78.59 12.51C70.81 12.51 66.7 16.75 66.7 24.29L66.7 25.69C66.7 35.48 72.47 38 79.35 38C86.04 38 89.06 36.12 89.06 36.12L87.68 31.14C87.68 31.14 84.12 32.66 80.23 32.66C76.2 32.66 74.47 31.63 74.03 27.76L89.65 27.76L89.65 23.76C89.66 15.59 85.04 12.51 78.59 12.51ZM78.78 17.5C81.48 17.5 83.22 19.15 83.12 22.98L74.04 22.98C74.2 18.95 76.08 17.5 78.78 17.5ZM131.82 12.48C123.83 12.48 119.62 16.98 119.62 25.05C119.62 36.12 126.88 37.91 131.84 37.91C139.1 37.91 143.93 34 143.93 25.15C143.92 15.95 138.5 12.48 131.82 12.48ZM131.72 18.28C135.23 18.28 136.62 20.91 136.62 23.9L136.62 26.48C136.62 30.1 134.68 32.2 131.71 32.2C128.92 32.2 126.97 30.24 126.97 26.48L126.97 23.9C126.97 19.89 129.3 18.28 131.72 18.28ZM158.62 12.48C150.63 12.48 146.43 16.98 146.43 25.05C146.43 36.12 153.68 37.91 158.64 37.91C165.9 37.91 170.73 34 170.73 25.15C170.73 15.95 165.3 12.48 158.62 12.48ZM158.53 18.28C162.04 18.28 163.43 20.91 163.43 23.9L163.43 26.48C163.43 30.1 161.49 32.2 158.52 32.2C155.73 32.2 153.78 30.24 153.78 26.48L153.78 23.9C153.78 19.89 156.11 18.28 158.53 18.28ZM173.52 37.41L173.52 0.74L180.92 0.09L180.92 24.67L188.26 12.96L196.08 12.96L188.42 25.09L196.38 37.41L188.54 37.41L180.92 25.45L180.92 37.41L173.52 37.41Z" fill="#1877F2" fill-opacity="1.000000" fill-rule="nonzero"/>
</svg>
