<svg width="175.000000" height="175.000000" viewBox="0 0 175 175" fill="none" xmlns="http://www.w3.org/2000/svg" xmlns:xlink="http://www.w3.org/1999/xlink">
	<desc>
			Created with Pixso.
	</desc>
	<defs/>
	<circle cx="87.500000" cy="87.500000" r="87.000000" stroke="#000000" stroke-opacity="1.000000" stroke-width="1.000000"/>
	<mask id="mask2_645" mask-type="alpha" maskUnits="userSpaceOnUse" x="0.000000" y="0.000000" width="175.000000" height="175.000000">
		<circle cx="87.500000" cy="87.500000" r="87.500000" fill="#D9D9D9" fill-opacity="1.000000"/>
	</mask>
	<g mask="url(#mask2_645)">
		<path d="M62.17 101.56C64.32 105.54 67.4 108.95 69.6 112.9C73.03 119.04 74.16 126.24 74.1 133.27C74.08 135.19 74 137.2 74.83 138.94C76.63 142.65 81.54 143.32 85.66 143.5C92.23 143.79 100.72 142.74 102.34 136.37C103.01 133.76 102.18 131.04 102.01 128.35C101.49 120.08 107.15 112.73 113.21 107.08C119.27 101.42 126.25 96.27 129.79 88.77C130.71 86.83 131.36 84.49 130.36 82.59C128.2 78.47 120.8 80.15 118.52 76.09C117.83 74.88 117.81 73.42 117.65 72.04C116.22 59.65 102.73 51.44 90.27 51.84C80.75 52.14 63.27 57.14 58.99 66.8C55.05 75.69 57.82 93.5 62.17 101.56Z" fill="#FFE7FB" fill-opacity="1.000000" fill-rule="nonzero"/>
		<path d="M28.35 196.22C28.22 200.12 28.9 204.65 32.24 206.65C33.92 207.66 35.96 207.81 37.92 207.92C73.45 210.01 109.11 209.9 144.63 207.6C145.6 207.54 146.64 207.45 147.41 206.85C149.01 205.61 148.53 203.11 147.87 201.2C144.44 191.29 140.36 181.62 135.67 172.25C132.91 166.73 129.43 160.88 123.6 158.88C115.49 156.09 107.2 161.9 98.82 163.76C82.16 167.44 68.03 149.58 52.89 154.39C37.62 159.25 28.8 181.82 28.35 196.22Z" fill="#C3C62B" fill-opacity="1.000000" fill-rule="nonzero"/>
		<path d="M67.54 146.82C67.23 147.32 66.92 147.87 66.96 148.46C67 149.17 67.51 149.75 68.02 150.25C78.41 160.65 96.35 162.36 108.52 154.1C110.04 153.06 111.53 151.83 112.3 150.16C113.83 146.88 112.03 142.75 109.01 140.74C105.99 138.73 102.12 138.45 98.52 138.85C94.91 139.25 91.39 140.25 87.78 140.57C78.75 141.34 72.88 138.23 67.54 146.82Z" fill="#6987FF" fill-opacity="1.000000" fill-rule="nonzero"/>
		<path d="M71.77 95.62C69.33 95.64 66.9 95.66 64.47 95.69C63.77 95.69 62.98 95.74 62.53 96.28C61.98 96.94 62.31 98.02 62.98 98.55C63.66 99.08 64.55 99.22 65.41 99.33C66.5 99.49 67.6 99.64 68.69 99.79C70.24 100 71.99 100.16 73.18 99.15C74.37 98.15 73.92 95.6 72.37 95.71L71.77 95.62Z" fill="#F03FA3" fill-opacity="1.000000" fill-rule="nonzero"/>
		<path d="M105.95 96.84C103.52 96.86 101.09 96.88 98.65 96.91C97.96 96.91 97.16 96.96 96.72 97.5C96.16 98.16 96.49 99.23 97.16 99.77C97.84 100.3 98.74 100.44 99.59 100.56C100.68 100.71 101.78 100.86 102.87 101.01C104.42 101.22 106.17 101.38 107.36 100.37C108.55 99.36 108.11 96.81 106.55 96.93L105.95 96.84Z" fill="#F03FA3" fill-opacity="1.000000" fill-rule="nonzero"/>
		<path d="M64.89 76.96C65.7 76.28 66.66 75.87 67.62 75.57C68.6 75.28 69.62 75.15 70.63 75.14C72.65 75.14 74.77 75.67 76.36 77.05C75.3 77.16 74.36 77.11 73.41 77.14L70.64 77.14C68.78 77.13 66.96 77.17 64.89 76.96Z" fill="#000000" fill-opacity="1.000000" fill-rule="nonzero"/>
		<path d="M72.46 86.88C72.46 88.5 71.64 89.8 70.63 89.8C69.61 89.8 68.79 88.5 68.79 86.88C68.79 85.27 69.61 83.96 70.63 83.96C71.64 83.96 72.46 85.27 72.46 86.88Z" fill="#000000" fill-opacity="1.000000" fill-rule="nonzero"/>
		<path d="M104.92 76.82C102.85 77.06 101.03 77.03 99.17 77.07L96.4 77.1C95.45 77.08 94.51 77.14 93.45 77.05C95.03 75.65 97.13 75.09 99.15 75.07C100.17 75.06 101.19 75.19 102.17 75.46C103.14 75.75 104.1 76.15 104.92 76.82Z" fill="#000000" fill-opacity="1.000000" fill-rule="nonzero"/>
		<path d="M97.79 86.88C97.79 88.5 98.61 89.8 99.63 89.8C100.64 89.8 101.46 88.5 101.46 86.88C101.46 85.27 100.64 83.96 99.63 83.96C98.61 83.96 97.79 85.27 97.79 86.88Z" fill="#000000" fill-opacity="1.000000" fill-rule="nonzero"/>
		<path d="M81.54 85.22C81.66 85.48 81.23 92.18 80.06 95.44C80.06 95.44 80.06 100.11 85.44 99.13" stroke="#000000" stroke-opacity="1.000000" stroke-width="1.000000"/>
		<path d="M78.26 106.1C78.26 106.1 86.26 106.64 92.62 105.54" stroke="#000000" stroke-opacity="1.000000" stroke-width="1.000000"/>
		<path d="M26.5 204L31.53 180.87C34.17 168.68 41.63 158.08 52.2 151.45L71.75 139.19L72.33 133.01L72.34 133.01L73.64 119.09L73.67 118.79" stroke="#000000" stroke-opacity="1.000000" stroke-width="1.000000"/>
		<path d="M144.39 204L139.36 180.87C136.71 168.68 129.25 158.08 118.69 151.45L99.14 139.19L97.75 124.58L97.26 119.32L97.24 119.15" stroke="#000000" stroke-opacity="1.000000" stroke-width="1.000000"/>
		<path d="M52.73 67.67C53.17 68.42 52.17 97.95 69.81 115.67C73.83 119.7 78.82 123.13 85.02 125.45C85.02 125.45 90.68 124.59 97.26 119.32C98.56 118.29 99.89 117.08 101.22 115.67C108.78 107.69 116.32 93.34 117.17 67.67" stroke="#000000" stroke-opacity="1.000000" stroke-width="1.000000"/>
		<path d="M54.09 83.85C54.09 83.85 46.68 76 43.57 80.2C40.46 84.39 48.85 102.71 59.29 99.59" stroke="#000000" stroke-opacity="1.000000" stroke-width="1.000000"/>
		<path d="M48.59 87.39C48.59 87.39 53.62 86.99 56.11 90.79" stroke="#000000" stroke-opacity="1.000000" stroke-width="1.000000"/>
		<path d="M51.6 91.17C51.6 91.17 51.62 89.44 54.85 89.37" stroke="#000000" stroke-opacity="1.000000" stroke-width="1.000000"/>
		<path d="M115.53 83.85C115.53 83.85 122.41 75.53 125.79 79.52C129.17 83.5 122 102.33 111.38 99.9" stroke="#000000" stroke-opacity="1.000000" stroke-width="1.000000"/>
		<path d="M121.44 87.02C121.44 87.02 116.39 86.95 114.16 90.91" stroke="#000000" stroke-opacity="1.000000" stroke-width="1.000000"/>
		<path d="M118.68 90.99C118.68 90.99 118.55 89.27 115.32 89.41" stroke="#000000" stroke-opacity="1.000000" stroke-width="1.000000"/>
		<path d="M71.74 139.19C71.74 139.19 85.2 148.8 99.13 139.19" stroke="#000000" stroke-opacity="1.000000" stroke-width="1.000000"/>
		<path d="M84.95 143.46L78.37 151.75C78.37 151.75 70.93 149.92 67.31 141.97" stroke="#000000" stroke-opacity="1.000000" stroke-width="1.000000"/>
		<path d="M86.23 143.46L92.8 151.75C92.8 151.75 100.25 149.92 103.87 141.97" stroke="#000000" stroke-opacity="1.000000" stroke-width="1.000000"/>
		<path d="M62.57 144.94C62.57 144.94 72.02 157.86 85.44 160.46C85.44 160.46 99.56 158.57 107.54 144.46" stroke="#000000" stroke-opacity="1.000000" stroke-width="1.000000"/>
		<path d="M59.66 146.86C59.66 146.86 72.02 161.76 85.44 164.36C85.44 164.36 102.43 160.37 110.41 146.26" stroke="#000000" stroke-opacity="1.000000" stroke-width="1.000000"/>
		<path d="" fill="#000000" fill-opacity="1.000000" fill-rule="nonzero"/>
		<path d="M85.44 164.36L85.44 204.01" stroke="#000000" stroke-opacity="1.000000" stroke-width="1.000000"/>
		<path d="M103.87 57.74C103.87 57.74 81.6 70.09 67.31 71.04C53.03 71.98 54.75 84.99 54.75 84.99C54.75 84.99 43.59 70.58 44.97 50.17C46.35 29.76 87.59 14.17 108.13 30.91C108.13 30.91 136.48 43.67 115.82 82.27C115.82 82.27 108.19 75.62 103.87 57.74Z" fill="#000000" fill-opacity="1.000000" fill-rule="nonzero"/>
		<path d="M96.46 29.72C96.6 28.1 96.92 26.49 97.42 24.94C98.99 20.15 104 17.63 108.8 17.11C110.42 16.93 112.08 16.94 113.67 17.3C118.05 18.32 121.43 22.05 123.08 26.23C124.21 29.09 124.65 32.21 124.34 35.26C124.17 36.99 123.75 38.71 122.89 40.21C122.21 41.41 121.25 42.44 120.17 43.31C116.33 46.42 110.36 47.5 105.6 46.51C102.42 45.86 100.07 43.88 98.61 41.02C96.85 37.56 96.13 33.59 96.46 29.72Z" fill="#000000" fill-opacity="1.000000" fill-rule="nonzero"/>
		<path d="M97.75 124.58C91.8 126.65 79.91 130.55 72.34 133.01L73.65 119.09C76.9 121.64 80.66 123.82 85.02 125.45C85.02 125.45 90.68 124.59 97.26 119.32L97.75 124.58Z" fill="#000000" fill-opacity="1.000000" fill-rule="nonzero"/>
	</g>
</svg>
