<svg width="25.714111" height="18.000000" viewBox="0 0 25.7141 18" fill="none" xmlns="http://www.w3.org/2000/svg" xmlns:xlink="http://www.w3.org/1999/xlink">
	<desc>
			Created with Pixso.
	</desc>
	<defs/>
	<path d="M17.22 9.5L10.75 12.7C10.5 12.84 9.64 12.65 9.64 12.36L9.64 5.79C9.64 5.5 10.51 5.32 10.76 5.46L16.95 8.83C17.21 8.98 17.49 9.36 17.22 9.5ZM25.71 5.64C25.71 2.52 23.18 0 20.07 0L5.64 0C2.52 0 0 2.52 0 5.64L0 12.35C0 15.47 2.52 18 5.64 18L20.07 18C23.18 18 25.71 15.47 25.71 12.35L25.71 5.64Z" fill="#FFFFFF" fill-opacity="1.000000" fill-rule="nonzero"/>
</svg>
