<svg width="175.000000" height="175.000000" viewBox="0 0 175 175" fill="none" xmlns="http://www.w3.org/2000/svg" xmlns:xlink="http://www.w3.org/1999/xlink">
	<desc>
			Created with Pixso.
	</desc>
	<defs/>
	<circle cx="87.500000" cy="87.500000" r="87.000000" stroke="#000000" stroke-opacity="1.000000" stroke-width="1.000000"/>
	<mask id="mask2_517" mask-type="alpha" maskUnits="userSpaceOnUse" x="0.000000" y="0.000000" width="175.000000" height="175.000000">
		<circle cx="87.500000" cy="87.500000" r="87.500000" fill="#D9D9D9" fill-opacity="1.000000"/>
	</mask>
	<g mask="url(#mask2_517)">
		<path d="M72.31 94.45C81.14 102.83 91.23 112.57 90.37 124.71C90.12 128.25 88.79 131.84 86.1 134.16C82.31 137.43 76.38 137.78 73.24 141.69C70.4 145.21 70.99 150.67 73.74 154.26C76.48 157.85 80.9 159.82 85.32 160.73C95.44 162.82 106.48 159.86 114.2 152.99C115.42 151.9 116.58 150.69 117.19 149.17C118.26 146.51 117.41 143.5 116.51 140.79C113.47 131.65 109.76 122.07 111.84 112.66C114.17 102.1 123.23 94.4 127.57 84.49C131.6 75.28 131.17 64.23 126.44 55.36C124.67 52.03 122.19 48.89 118.77 47.29C115.55 45.78 111.84 45.79 108.28 45.9C94.67 46.32 70.27 44.84 60.66 56.75C50.39 69.48 62.97 85.58 72.31 94.45Z" fill="#FFE7FB" fill-opacity="1.000000" fill-rule="nonzero"/>
		<path d="M59.06 163.67C57.69 161.67 56.19 159.67 54.11 158.42C49.45 155.61 43.12 157.44 39.17 161.18C35.23 164.93 33.11 170.15 31.1 175.21C30.04 177.89 28.97 180.57 27.91 183.25C26.56 186.65 25.2 190.1 24.86 193.74C24.52 197.39 25.34 201.3 27.86 203.95C30.02 206.22 33.15 207.3 36.21 207.97C43.35 209.51 50.73 209.25 58.03 208.98C83.99 208.03 67.82 176.59 59.06 163.67Z" fill="#6987FF" fill-opacity="1.000000" fill-rule="nonzero"/>
		<path d="M112.67 181.79C113.45 177.47 113.69 173.06 114.54 168.75C115.45 164.1 117.07 159.58 119.32 155.41C120.55 153.12 122.16 150.78 124.61 149.93C127.01 149.1 129.71 149.9 131.86 151.25C138.35 155.33 140.76 163.47 142.68 170.9C144.99 179.89 147.3 188.88 149.61 197.86C150.08 199.68 150.33 202.05 148.72 203C148.09 203.37 147.32 203.4 146.59 203.42C135.85 203.7 123.04 205.21 112.47 203.07C105.75 201.7 106.87 202.4 108.59 195.82C109.82 191.09 111.79 186.65 112.67 181.79Z" fill="#6987FF" fill-opacity="1.000000" fill-rule="nonzero"/>
		<path d="M80.07 191.09C81.23 194.04 82.53 197.17 85.18 198.9C88.84 201.29 94.02 200.05 97.19 197.04C100.36 194.02 101.87 189.66 102.75 185.38C103.63 181.09 104 176.68 105.42 172.54C106.81 168.46 109.22 164.65 109.61 160.36C109.71 159.2 109.48 157.75 108.39 157.37C107.91 157.2 107.38 157.29 106.88 157.4C102.75 158.29 98.84 160.21 94.64 160.64C87.37 161.38 75.51 152.68 71.8 161.06C68.38 168.8 77.31 184.05 80.07 191.09Z" fill="#DAC8FF" fill-opacity="1.000000" fill-rule="nonzero"/>
		<path d="M75.58 90.67C73.08 90.69 70.58 90.71 68.08 90.74C67.36 90.75 66.55 90.8 66.09 91.35C65.52 92.03 65.85 93.13 66.55 93.68C67.24 94.23 68.16 94.37 69.04 94.49C70.17 94.65 71.3 94.8 72.42 94.96C74.01 95.18 75.81 95.34 77.04 94.3C78.26 93.27 77.8 90.64 76.21 90.77L75.58 90.67Z" fill="#F03FA3" fill-opacity="1.000000" fill-rule="nonzero"/>
		<path d="M110.75 91.92C108.25 91.95 105.75 91.97 103.25 91.99C102.53 92 101.71 92.05 101.25 92.6C100.69 93.28 101.02 94.39 101.72 94.94C102.41 95.49 103.33 95.63 104.21 95.75C105.34 95.9 106.46 96.06 107.59 96.21C109.18 96.43 110.98 96.59 112.21 95.56C113.43 94.52 112.97 91.9 111.37 92.02L110.75 91.92Z" fill="#F03FA3" fill-opacity="1.000000" fill-rule="nonzero"/>
		<path d="M28.91 200.58L34.08 176.79C36.81 164.24 44.47 153.34 55.35 146.52L75.46 133.9L76.01 128.13L77.43 113.22L77.47 112.8" stroke="#000000" stroke-opacity="1.000000" stroke-width="1.000000"/>
		<path d="M142.11 97.92C139.54 88.91 130.65 43.49 130.65 43.49L111.1 42.48C119.79 50.1 122.2 60.32 122.2 60.32C121.79 72.56 119.9 82.29 117.23 90.04L117.22 90.04C114.13 99 109.96 105.3 105.8 109.7C104.43 111.15 103.05 112.4 101.71 113.46C99.13 115.53 96.68 116.94 94.65 117.87C91.35 119.43 89.12 119.77 89.12 119.77C82.74 117.38 77.6 113.85 73.47 109.7C55.33 91.47 56.35 61.09 55.9 60.32C55.9 60.32 55.48 47.84 66.51 40.17L48.6 39.24C48.6 39.24 43.73 66.91 40.67 87.16C37.61 107.42 41.15 120.77 54.68 122.18C68.22 123.6 119.55 122.18 119.55 122.18C119.55 122.18 149.05 122.18 142.11 97.92Z" fill="#000000" fill-opacity="1.000000" fill-rule="nonzero"/>
		<path d="M101.69 113.28L101.71 113.46L102.28 119.45L103.64 133.9L110.39 138.14L110.41 138.14L110.41 138.15L123.76 146.52C134.63 153.34 142.3 164.24 145.03 176.79L148.25 191.61L150.2 200.58" stroke="#000000" stroke-opacity="1.000000" stroke-width="1.000000"/>
		<path d="M68.6 69.02C68.6 69.02 74.5 67.01 80.4 69.02" stroke="#000000" stroke-opacity="1.000000" stroke-width="2.000000" stroke-linejoin="bevel" stroke-linecap="round"/>
		<path d="M76.39 77.87C76.39 79.53 75.54 80.87 74.5 80.87C73.46 80.87 72.61 79.53 72.61 77.87C72.61 76.2 73.46 74.86 74.5 74.86C75.54 74.86 76.39 76.2 76.39 77.87Z" fill="#000000" fill-opacity="1.000000" fill-rule="nonzero"/>
		<path d="M110.24 69.02C110.24 69.02 104.34 67.01 98.44 69.02" stroke="#000000" stroke-opacity="1.000000" stroke-width="2.000000" stroke-linejoin="bevel" stroke-linecap="round"/>
		<path d="M102.45 77.87C102.45 79.53 103.29 80.87 104.34 80.87C105.38 80.87 106.22 79.53 106.22 77.87C106.22 76.2 105.38 74.86 104.34 74.86C103.29 74.86 102.45 76.2 102.45 77.87Z" fill="#000000" fill-opacity="1.000000" fill-rule="nonzero"/>
		<path d="M88.11 77.9C88.22 78.15 88.74 82.52 85.44 85.37C85.44 85.37 84.75 88.24 89.71 88.31" stroke="#000000" stroke-opacity="1.000000" stroke-width="1.000000"/>
		<path d="M82.32 97.28C82.32 97.28 90.64 100.04 97.09 97.43" stroke="#000000" stroke-opacity="1.000000" stroke-width="1.000000"/>
		<path d="M56.92 71.81C56.92 71.81 50.02 63.12 46.46 67.15C42.91 71.18 49.9 90.69 60.87 88.41" stroke="#000000" stroke-opacity="1.000000" stroke-width="1.000000"/>
		<path d="M50.98 74.96C50.98 74.96 56.17 74.99 58.39 79.11" stroke="#000000" stroke-opacity="1.000000" stroke-width="1.000000"/>
		<path d="M53.74 79.1C53.74 79.1 53.9 77.33 57.23 77.54" stroke="#000000" stroke-opacity="1.000000" stroke-width="1.000000"/>
		<path d="M121.43 71.81C121.43 71.81 128.34 63.12 131.89 67.15C135.45 71.18 128.46 90.69 117.49 88.41L121.43 71.81Z" fill="#F7F6F2" fill-opacity="1.000000" fill-rule="nonzero"/>
		<path d="M127.57 74.96C127.57 74.96 122.38 74.99 120.16 79.11" stroke="#000000" stroke-opacity="1.000000" stroke-width="1.000000"/>
		<path d="M124.81 79.1C124.81 79.1 124.65 77.33 121.32 77.54" stroke="#000000" stroke-opacity="1.000000" stroke-width="1.000000"/>
		<path d="M55.9 60.32C56.35 61.09 55.33 91.47 73.47 109.7C77.6 113.85 82.74 117.38 89.12 119.77C89.12 119.77 91.35 119.43 94.65 117.87C96.68 116.94 99.13 115.53 101.71 113.46C103.05 112.4 104.43 111.15 105.8 109.7C109.96 105.3 114.13 99 117.22 90.04L117.23 90.04C119.9 82.29 121.79 72.56 122.2 60.32" stroke="#000000" stroke-opacity="1.000000" stroke-width="1.000000"/>
		<path d="M114.02 50.62C114.02 50.62 92.61 71.67 56.93 73.87C56.93 73.87 45.92 62.22 48.6 41.3C51.27 20.38 96.41 -3.54 122.2 29.33C122.2 29.33 143.04 45.07 121.43 73.87C121.43 73.87 122.67 68.55 114.02 50.62Z" fill="#000000" fill-opacity="1.000000" fill-rule="nonzero"/>
		<path d="M64.66 140.68C64.66 140.68 77.43 154.53 90.75 158.51C90.75 158.51 104.98 156.5 113.67 140.19" stroke="#000000" stroke-opacity="1.000000" stroke-width="1.000000"/>
		<path d="M62.28 142.17C62.28 142.17 71.87 157.04 90.43 161.76C90.43 161.76 110.89 156.92 116 141.65" stroke="#000000" stroke-opacity="1.000000" stroke-width="1.000000"/>
		<path d="M60.89 143.04C60.89 143.04 71.25 175.23 75.81 200.58" stroke="#000000" stroke-opacity="1.000000" stroke-width="1.000000"/>
		<path d="M50.32 150.15C50.32 150.15 46.08 164.75 54.73 174.03C63.38 183.31 73.86 190.84 73.86 190.84" stroke="#000000" stroke-opacity="1.000000" stroke-width="1.000000"/>
		<path d="M118.23 143.04C118.23 143.04 107.87 175.23 103.31 200.58" stroke="#000000" stroke-opacity="1.000000" stroke-width="1.000000"/>
		<path d="M128.8 150.15C128.8 150.15 133.04 164.75 124.39 174.03C115.74 183.31 105.27 190.84 105.27 190.84" stroke="#000000" stroke-opacity="1.000000" stroke-width="1.000000"/>
		<path d="M102.28 119.45C95.23 121.85 82.98 125.86 76.01 128.13L77.43 113.22C80.76 115.85 84.63 118.09 89.12 119.77C89.12 119.77 91.35 119.43 94.65 117.87C96.68 116.94 99.13 115.53 101.71 113.46L102.28 119.45Z" fill="#000000" fill-opacity="1.000000" fill-rule="nonzero"/>
	</g>
</svg>
