<svg width="175.000000" height="175.000000" viewBox="0 0 175 175" fill="none" xmlns="http://www.w3.org/2000/svg" xmlns:xlink="http://www.w3.org/1999/xlink">
	<desc>
			Created with Pixso.
	</desc>
	<defs/>
	<circle cx="87.500000" cy="87.500000" r="87.000000" stroke="#000000" stroke-opacity="1.000000" stroke-width="1.000000"/>
	<mask id="mask2_558" mask-type="alpha" maskUnits="userSpaceOnUse" x="0.000000" y="0.000000" width="175.000000" height="175.000000">
		<circle cx="87.500000" cy="87.500000" r="87.500000" fill="#D9D9D9" fill-opacity="1.000000"/>
	</mask>
	<g mask="url(#mask2_558)">
		<path d="M48.35 97.69C51.16 102.47 55.1 106.47 58.38 110.94C63.92 118.47 67.6 127.36 68.99 136.61C69.94 142.91 70.34 150.27 75.54 153.94C78.17 155.79 81.51 156.25 84.72 156.43C88.26 156.63 92.17 156.44 94.78 154.05C98.13 150.97 97.91 145.75 98.19 141.2C98.89 129.73 104.34 119.18 108.29 108.38C113.5 94.16 116.2 79.02 116.23 63.88C116.24 57.76 115.6 51.1 111.45 46.6C107.98 42.85 102.73 41.36 97.68 40.52C83.53 38.17 63.79 40.33 56.72 54.67C50.92 66.42 41.32 85.79 48.35 97.69Z" fill="#FFE7FB" fill-opacity="1.000000" fill-rule="nonzero"/>
		<path d="M40.58 185C44.07 172.86 53.35 161.52 65.81 159.44C68.61 158.98 71.58 159 74.17 160.16C75.92 160.94 77.4 162.2 79.01 163.24C82.92 165.79 87.61 167.11 92.27 166.98C98.65 166.8 104.92 163.99 111.22 164.97C119.37 166.23 125.25 173.44 129 180.78C135.69 193.9 138.14 209.13 135.9 223.68C135.64 225.35 65.42 223.35 58.84 223.31C50.31 223.26 42.76 224 39.36 215.01C36.11 206.42 38.15 193.43 40.58 185Z" fill="#C3C62B" fill-opacity="1.000000" fill-rule="nonzero"/>
		<path d="M122.35 83.92C119.5 89.77 118.44 96.48 119.33 102.93C123.62 104.24 128.07 101.65 131.58 98.86C133.88 97.03 136.12 94.99 137.41 92.35C138.69 89.7 138.83 86.32 137.05 83.98C135.43 81.82 132.52 80.95 129.82 81.11C127.13 81.26 124.57 82.29 122.06 83.3L122.35 83.92Z" fill="#FFE7FB" fill-opacity="1.000000" fill-rule="nonzero"/>
		<path d="M88.49 102.75C88.83 102.83 87.66 107.18 82.74 107.1C77.83 107.01 74.23 108.98 74.31 117.58L72.16 116.27C72.16 116.27 67.62 97.83 88.49 102.75Z" fill="#000000" fill-opacity="1.000000" fill-rule="nonzero"/>
		<path d="M88.6 102.75C88.26 102.83 89.42 107.18 94.34 107.1C99.25 107.01 102.85 108.98 102.77 117.58L104.93 116.27C104.93 116.27 109.46 97.83 88.6 102.75Z" fill="#000000" fill-opacity="1.000000" fill-rule="nonzero"/>
		<path d="M54.56 66.77C54.56 66.77 54.37 78.97 56.85 92.84C59.07 105.34 63.46 119.18 72.08 126.68C76.08 130.15 80.97 132.26 86.98 132.27C91.76 132.27 95.88 131.35 99.44 129.71C100.24 129.34 101.02 128.94 101.75 128.5C102 128.36 102.25 128.21 102.48 128.05C102.98 127.75 103.45 127.43 103.91 127.08C104.1 126.94 104.28 126.81 104.48 126.66C104.74 126.45 105.01 126.25 105.27 126.02C105.7 125.67 106.11 125.3 106.52 124.92C106.97 124.5 107.42 124.06 107.85 123.6C108.19 123.24 108.54 122.85 108.87 122.47C108.9 122.43 108.93 122.39 108.96 122.36C109.26 122.01 109.55 121.64 109.83 121.28C109.88 121.23 109.92 121.18 109.95 121.14C115.78 113.55 118.71 103.18 120.13 93.52C120.14 93.49 120.14 93.48 120.14 93.48C122.21 79.34 121.05 66.77 121.05 66.77" stroke="#000000" stroke-opacity="1.000000" stroke-width="1.000000"/>
		<path d="M75.6 129.08L75.59 129.22L74.44 141.41L73.47 151.59L58.34 161.08L52.53 164.73C51.9 165.13 51.27 165.53 50.66 165.96C40.33 173.11 33.06 183.93 30.38 196.26L25 221.04" stroke="#000000" stroke-opacity="1.000000" stroke-width="1.000000"/>
		<path d="M99.44 129.71L99.76 133.1L101.52 151.59L118.46 162.22L122.46 164.73C123.73 165.52 124.96 166.37 126.14 167.28C135.51 174.39 142.09 184.66 144.61 196.26L150 221.04" stroke="#000000" stroke-opacity="1.000000" stroke-width="1.000000"/>
		<path d="M55.59 85.78C55.59 85.78 48.06 75.18 43.64 79.67C39.23 84.16 46.18 107.43 59.17 105.44" stroke="#000000" stroke-opacity="1.000000" stroke-width="1.000000"/>
		<path d="M121.07 85.47C121.07 85.47 128.24 74.63 132.8 78.97C137.37 83.31 131.2 106.8 118.15 105.25" stroke="#000000" stroke-opacity="1.000000" stroke-width="1.000000"/>
		<path d="M48.44 89.09C48.44 89.09 54.51 89.45 56.84 94.41" stroke="#000000" stroke-opacity="1.000000" stroke-width="1.000000"/>
		<path d="M51.4 94.1C51.4 94.1 51.71 92.04 55.58 92.5" stroke="#000000" stroke-opacity="1.000000" stroke-width="1.000000"/>
		<path d="M128.47 88.55C128.47 88.55 122.41 89.11 120.25 94.14" stroke="#000000" stroke-opacity="1.000000" stroke-width="1.000000"/>
		<path d="M125.67 93.66C125.67 93.66 125.3 91.6 121.44 92.19" stroke="#000000" stroke-opacity="1.000000" stroke-width="1.000000"/>
		<path d="M120.25 87.4C120.25 87.4 116.48 85.76 116.48 81.83C116.48 77.9 118.44 70.86 115.82 66.76C113.21 62.67 109.44 58.9 109.44 58.9C109.44 58.9 86.67 53.34 60.8 62.01C60.8 62.01 56.99 65.5 58.01 72.27C60.47 88.55 55.84 87.46 55.84 87.46C55.84 87.46 48.44 76.75 50.74 66.19C50.74 66.19 36.86 52.95 47.45 32.29C59.17 9.45 99.55 11.14 113.31 26.28C124.36 38.43 120.25 46.46 120.25 46.46C120.25 46.46 135.97 60.54 120.25 87.4Z" fill="#000000" fill-opacity="1.000000" fill-rule="nonzero"/>
		<path d="M67.11 56.12C65.04 53.61 63.46 50.71 62.23 47.68C60.99 44.64 60.25 41.4 59.98 38.13C59.8 36.49 59.92 34.84 59.97 33.19C60.25 31.57 60.35 29.91 60.9 28.35C61.15 27.57 61.31 26.76 61.63 26.01L62.59 23.75C62.89 22.98 63.34 22.3 63.75 21.59C64.17 20.89 64.59 20.2 65.02 19.52C63.65 22.46 62.29 25.39 61.7 28.55C61.28 30.09 61.2 31.7 60.98 33.27C60.97 34.86 60.85 36.46 61.05 38.04C61.28 41.22 61.97 44.36 63 47.39C63.52 48.91 64.11 50.4 64.82 51.85C65.47 53.33 66.26 54.73 67.11 56.12Z" fill="#FFFFFF" fill-opacity="1.000000" fill-rule="nonzero"/>
		<path d="M74.48 15.89C73.36 17.72 72.65 19.73 72.04 21.74C71.47 23.77 71.08 25.85 70.83 27.94L70.66 29.51L70.56 31.09C70.46 32.15 70.51 33.21 70.47 34.27C70.46 35.33 70.51 36.39 70.52 37.46C70.56 38.52 70.65 39.59 70.67 40.66C70.41 39.62 70.21 38.57 69.99 37.51C69.86 36.44 69.69 35.37 69.63 34.3C69.49 32.14 69.5 29.97 69.77 27.81C70.04 25.66 70.49 23.52 71.25 21.48C72.01 19.46 73.02 17.48 74.48 15.89Z" fill="#FFFFFF" fill-opacity="1.000000" fill-rule="nonzero"/>
		<path d="M73.12 28.28C72.99 27.12 73.04 25.95 73.16 24.8C73.28 23.65 73.51 22.51 73.83 21.38C74.17 20.27 74.58 19.16 75.19 18.14C75.78 17.13 76.55 16.17 77.55 15.56C76.86 16.5 76.37 17.49 75.94 18.52C75.51 19.54 75.16 20.61 74.86 21.68C74.21 23.83 73.74 26.04 73.12 28.28Z" fill="#FFFFFF" fill-opacity="1.000000" fill-rule="nonzero"/>
		<path d="M87.05 28.28C86.97 30.6 86.82 32.9 86.85 35.2C86.89 37.49 87 39.78 87.31 42.05C87.61 44.31 88.12 46.53 88.78 48.71C89.16 49.79 89.52 50.88 90.04 51.9C90.44 52.99 91.1 53.93 91.62 54.98C90.11 53.21 88.89 51.18 88 49C87.14 46.81 86.58 44.51 86.24 42.19C85.96 39.86 85.87 37.51 86.03 35.18C86.1 34.01 86.23 32.85 86.39 31.7C86.58 30.55 86.8 29.41 87.05 28.28Z" fill="#FFFFFF" fill-opacity="1.000000" fill-rule="nonzero"/>
		<path d="M82.34 57.55C82.34 57.55 73.25 60.46 76.32 66.76C76.32 66.76 69.45 56.15 82.34 57.55Z" fill="#000000" fill-opacity="1.000000" fill-rule="nonzero"/>
		<path d="M63.75 75.75C64.3 75.04 64.91 74.55 65.53 74.08L67.4 74.15C68.64 74.23 69.88 74.37 71.11 74.58C72.35 74.79 73.58 75.1 74.8 75.49C75.4 75.7 76.01 75.91 76.6 76.18C77 76.86 77.34 77.61 77.55 78.44C76.7 78.73 76.01 78.87 75.31 79.12C74.82 78.9 74.31 78.72 73.79 78.54C72.74 78.21 71.67 77.93 70.56 77.75C69.46 77.56 68.34 77.43 67.21 77.36C66.65 77.34 66.08 77.29 65.52 77.32C64.95 76.84 64.38 76.38 63.75 75.75Z" fill="#000000" fill-opacity="1.000000" fill-rule="nonzero"/>
		<path d="M72.16 84.99C72.16 86.72 71.28 88.12 70.19 88.12C69.1 88.12 68.23 86.72 68.23 84.99C68.23 83.26 69.1 81.86 70.19 81.86C71.28 81.86 72.16 83.26 72.16 84.99Z" fill="#000000" fill-opacity="1.000000" fill-rule="nonzero"/>
		<path d="M110.61 74.95C109.99 75.59 109.45 76.07 108.92 76.57C108.37 76.56 107.83 76.64 107.28 76.69C106.19 76.83 105.11 77.05 104.06 77.35C103.01 77.64 101.98 78.02 101.01 78.5C100.52 78.72 100.04 78.99 99.58 79.26C98.85 79.1 98.15 79.04 97.28 78.84C97.39 78 97.63 77.22 97.94 76.49C98.49 76.17 99.05 75.86 99.63 75.6C100.78 75.04 101.97 74.6 103.19 74.26C104.4 73.91 105.64 73.66 106.89 73.5C107.51 73.42 108.14 73.39 108.77 73.33C109.42 73.78 110.06 74.25 110.61 74.95Z" fill="#000000" fill-opacity="1.000000" fill-rule="nonzero"/>
		<path d="M102.51 84.99C102.51 86.72 103.39 88.12 104.47 88.12C105.56 88.12 106.44 86.72 106.44 84.99C106.44 83.26 105.56 81.86 104.47 81.86C103.39 81.86 102.51 83.26 102.51 84.99Z" fill="#000000" fill-opacity="1.000000" fill-rule="nonzero"/>
		<path d="M84.82 83.59C84.95 84.08 85.19 91.51 81.63 99.8C81.63 99.8 85.38 102.3 89.93 99.52" stroke="#000000" stroke-opacity="1.000000" stroke-width="1.000000"/>
		<path d="M80.23 109.71C80.23 109.71 88.49 111.49 97.28 110.19" stroke="#000000" stroke-opacity="1.000000" stroke-width="1.000000"/>
		<path d="M84.92 113.47C84.92 113.47 89.59 114.25 92.05 112.94" stroke="#000000" stroke-opacity="1.000000" stroke-width="1.000000"/>
		<path d="M120.13 93.52C118.71 103.18 115.78 113.55 109.95 121.14C107.15 124.76 103.7 127.75 99.44 129.71C95.88 131.35 91.76 132.27 86.98 132.27C80.97 132.26 76.08 130.15 72.08 126.68C63.46 119.18 59.07 105.34 56.85 92.84C56.85 92.84 62.56 106.48 66.62 111.14C70.67 115.81 74.67 119.41 88.94 119.66C103.21 119.41 107.23 115.81 111.28 111.14C115.2 106.63 119.84 94.28 120.13 93.52Z" fill="#000000" fill-opacity="1.000000" fill-rule="nonzero"/>
		<path d="M73.47 151.59L89.93 169.12L101.52 151.59" stroke="#000000" stroke-opacity="1.000000" stroke-width="1.000000"/>
		<path d="M67.23 155.5L74.88 171.25L85.38 164.28" stroke="#000000" stroke-opacity="1.000000" stroke-width="1.000000"/>
		<path d="M94.3 162.52L103.21 171.25L110.84 157.44" stroke="#000000" stroke-opacity="1.000000" stroke-width="1.000000"/>
		<path d="M89.93 169.12L94.29 169.12C94.29 169.12 95.19 177.14 90.77 178.62L89.93 221.03" stroke="#000000" stroke-opacity="1.000000" stroke-width="1.000000"/>
		<path d="M61.93 221.04L53.42 221.04L50.66 165.96C51.27 165.53 51.9 165.13 52.53 164.73L58.34 161.08L61.93 221.04Z" fill="#000000" fill-opacity="1.000000" fill-rule="nonzero"/>
		<path d="M126.14 167.28L123.46 221.04L114.94 221.04L118.46 162.22L122.46 164.73C123.73 165.52 124.96 166.37 126.14 167.28Z" fill="#000000" fill-opacity="1.000000" fill-rule="nonzero"/>
		<path d="M99.76 133.1C90.89 136.07 79.16 139.89 74.44 141.41L75.59 129.22C78.86 131.15 82.63 132.26 86.98 132.27C91.76 132.27 95.88 131.35 99.44 129.71L99.76 133.1Z" fill="#000000" fill-opacity="1.000000" fill-rule="nonzero"/>
	</g>
</svg>
