<svg width="175.000000" height="175.000000" viewBox="0 0 175 175" fill="none" xmlns="http://www.w3.org/2000/svg" xmlns:xlink="http://www.w3.org/1999/xlink">
	<desc>
			Created with Pixso.
	</desc>
	<defs/>
	<circle cx="87.500000" cy="87.500000" r="87.000000" stroke="#000000" stroke-opacity="1.000000" stroke-width="1.000000"/>
	<mask id="mask2_604" mask-type="alpha" maskUnits="userSpaceOnUse" x="0.000000" y="0.000000" width="175.000000" height="175.000000">
		<circle cx="87.500000" cy="87.500000" r="87.500000" fill="#D9D9D9" fill-opacity="1.000000"/>
	</mask>
	<g mask="url(#mask2_604)">
		<path d="M72.8 121.17C73.49 124.76 74.26 128.52 76.65 131.29C80.37 135.61 86.74 136.19 92.44 136.46C95.66 136.61 99.42 136.53 101.4 133.97C102.86 132.09 102.8 129.5 103.04 127.12C103.81 119.57 108.09 112.92 111.22 106C119.22 88.28 119.65 67.28 112.39 49.24C111.37 46.73 110.17 44.2 108.14 42.41C105.86 40.39 102.8 39.52 99.8 39C86.19 36.63 59.94 40.02 60.8 58.26C61.77 78.81 68.9 100.95 72.8 121.17Z" fill="#FFE7FB" fill-opacity="1.000000" fill-rule="nonzero"/>
		<path d="M132.26 200.62C134.77 200.69 137.47 200.7 139.51 199.25C142.97 196.79 142.72 191.66 142.05 187.47C139.69 172.88 135.68 157.07 123.74 148.36C114.53 141.65 102.4 140.59 91.02 140.99C81.89 141.31 72.8 142.41 63.78 143.84C57.89 144.77 51.75 145.95 47.11 149.7C40.69 154.88 38.66 163.64 37.02 171.73C35.73 178.09 29.6 192.28 35.62 197.03C41.19 201.42 59.36 198.57 66.33 198.77C88.31 199.38 110.28 199.99 132.26 200.62Z" fill="#6987FF" fill-opacity="1.000000" fill-rule="nonzero"/>
		<path d="M76.09 188.83C77.07 193.14 78.53 197.56 81.71 200.64C84.88 203.72 90.19 204.97 93.79 202.4C98.12 199.31 97.86 192.96 97.87 187.64C97.88 181.81 98.76 175.98 100.46 170.41C102.95 162.25 107.21 154.53 108 146.04C108.26 143.19 107.94 139.9 105.67 138.13C104.3 137.06 102.48 136.78 100.75 136.57C91.18 135.43 74.5 132.56 71.45 145.03C69.99 150.99 72.51 159.21 73.06 165.26C73.77 173.16 74.31 181.08 76.09 188.83Z" fill="#DBC9FF" fill-opacity="1.000000" fill-rule="nonzero"/>
		<path d="M72.61 89.62C70.18 89.65 67.75 89.67 65.32 89.69C64.62 89.7 63.83 89.75 63.38 90.29C62.83 90.95 63.16 92.02 63.83 92.55C64.51 93.09 65.4 93.22 66.25 93.34C67.35 93.49 68.45 93.64 69.54 93.79C71.08 94.01 72.84 94.16 74.03 93.16C75.22 92.15 74.77 89.6 73.22 89.72L72.61 89.62Z" fill="#F03FA3" fill-opacity="1.000000" fill-rule="nonzero"/>
		<path d="M106.79 90.84C104.36 90.87 101.93 90.89 99.5 90.91C98.8 90.92 98.01 90.97 97.56 91.51C97.01 92.17 97.34 93.24 98.01 93.77C98.69 94.31 99.58 94.44 100.43 94.56C101.53 94.71 102.63 94.86 103.72 95.01C105.27 95.23 107.02 95.38 108.21 94.38C109.4 93.37 108.95 90.82 107.4 90.94L106.79 90.84Z" fill="#F03FA3" fill-opacity="1.000000" fill-rule="nonzero"/>
		<path d="M68.38 72.93C69.06 72.12 69.92 71.55 70.83 71.08C71.74 70.63 72.71 70.32 73.71 70.13C75.7 69.77 77.87 69.92 79.68 71C78.66 71.29 77.72 71.4 76.8 71.6L74.07 72.1C72.24 72.41 70.45 72.78 68.38 72.93Z" fill="#000000" fill-opacity="1.000000" fill-rule="nonzero"/>
		<path d="M75.79 80.57C75.79 82.19 74.97 83.49 73.96 83.49C72.94 83.49 72.12 82.19 72.12 80.57C72.12 78.96 72.94 77.65 73.96 77.65C74.97 77.65 75.79 78.96 75.79 80.57Z" fill="#000000" fill-opacity="1.000000" fill-rule="nonzero"/>
		<path d="M108.45 73.24C106.39 72.97 104.62 72.51 102.82 72.09L100.12 71.44C99.21 71.19 98.28 71.03 97.27 70.68C99.14 69.71 101.32 69.68 103.28 70.15C104.27 70.39 105.23 70.76 106.11 71.26C106.98 71.78 107.82 72.39 108.45 73.24Z" fill="#000000" fill-opacity="1.000000" fill-rule="nonzero"/>
		<path d="M101.12 80.57C101.12 82.19 101.95 83.49 102.96 83.49C103.97 83.49 104.79 82.19 104.79 80.57C104.79 78.96 103.97 77.65 102.96 77.65C101.95 77.65 101.12 78.96 101.12 80.57Z" fill="#000000" fill-opacity="1.000000" fill-rule="nonzero"/>
		<path d="M86.15 78.92C86.27 79.17 85.46 85.66 83.39 89.13C83.39 89.13 82.94 91.52 87.55 92.82" stroke="#000000" stroke-opacity="1.000000" stroke-width="1.000000"/>
		<path d="M81.56 99.45C81.56 99.45 89.65 102.13 95.92 99.58" stroke="#000000" stroke-opacity="1.000000" stroke-width="1.000000"/>
		<path d="M75.36 115.92L74.22 127.96L73.75 132.89L70.79 134.75L54.2 145.14C43.62 151.78 36.17 162.38 33.53 174.57L28.5 197.7" stroke="#000000" stroke-opacity="1.000000" stroke-width="1.000000"/>
		<path d="M99.45 115.04L99.87 119.5L100.69 128.09L101.14 132.89L120.69 145.14C131.25 151.78 138.71 162.38 141.36 174.57L146.39 197.7" stroke="#000000" stroke-opacity="1.000000" stroke-width="1.000000"/>
		<path d="M119.18 61.36C119.23 63.25 119.24 65.08 119.21 66.85C119.21 66.89 119.22 66.92 119.22 66.94C119.22 66.95 119.22 66.97 119.21 66.98C118.88 89.29 112.94 102.07 106.26 109.37C104.01 111.83 101.68 113.66 99.45 115.04C98.71 115.5 97.98 115.9 97.27 116.26C91.58 119.15 87.02 119.15 87.02 119.15C85.87 119.15 84.76 119.07 83.7 118.92C80.59 118.49 77.83 117.44 75.36 115.92C73.75 114.93 72.27 113.74 70.92 112.39C61.86 103.41 58 87.32 56.28 75.6L56.27 75.59C56.2 75.11 56.13 74.63 56.07 74.17C55.07 66.91 54.89 61.64 54.73 61.36" stroke="#000000" stroke-opacity="1.000000" stroke-width="1.000000"/>
		<path d="M129.46 35.69C135.27 55.71 142.84 135.45 102.9 133.99L99.44 115.04C108.31 109.56 118.76 96.78 119.2 66.98C119.21 66.97 119.21 66.97 119.21 66.97C119.21 66.97 119.21 66.96 119.21 66.94C119.21 66.92 119.2 66.89 119.2 66.85C119.15 65.95 118.39 59.96 108.1 45.46C108.1 45.46 94.83 61.36 75.35 61.36C57.06 61.36 55.84 70.57 56.06 74.17C56.12 75.05 56.26 75.59 56.26 75.59L56.27 75.6C58.25 89.08 63.06 108.35 75.35 115.92L73.74 132.89L47.11 149.7C44.75 129.54 41.15 103.13 41.31 70.42C41.31 70.42 40.09 9.68 97.23 15.37C97.23 15.37 110.83 17.73 112.74 24.11C112.74 24.11 126.57 25.73 129.46 35.69Z" fill="#000000" fill-opacity="1.000000" fill-rule="nonzero"/>
		<path d="M73.74 132.89C73.74 132.89 87.28 141.66 101.13 132.89" stroke="#000000" stroke-opacity="1.000000" stroke-width="1.000000"/>
		<path d="M71.98 133.99C71.98 133.99 87.45 147.62 102.9 133.99" stroke="#000000" stroke-opacity="1.000000" stroke-width="1.000000"/>
		<path d="M80.35 197.7C80.35 197.7 80.24 197.19 80.04 196.25C79.81 195.18 79.47 193.56 79.04 191.53C78.72 190.03 78.35 188.29 77.95 186.39C77.63 184.91 77.3 183.33 76.94 181.67C76.59 180.02 76.23 178.3 75.85 176.53C75.53 174.99 75.19 173.41 74.85 171.81C74.49 170.1 74.13 168.38 73.76 166.67C73.43 165.09 73.09 163.5 72.76 161.95C72.39 160.2 72.03 158.48 71.68 156.81C71.33 155.19 71 153.6 70.68 152.09C68.84 143.33 67.49 136.82 67.53 136.78" stroke="#000000" stroke-opacity="1.000000" stroke-width="1.000000"/>
		<path d="M58.37 142.52C58.06 142.72 56.74 156.37 56.74 156.37L69.27 169.73L65.76 177.85L78.79 190.34" stroke="#000000" stroke-opacity="1.000000" stroke-width="1.000000"/>
		<path d="M93.82 197.7C93.82 197.7 93.93 197.19 94.13 196.25C94.36 195.18 94.7 193.56 95.13 191.53C95.45 190.03 95.82 188.29 96.22 186.39C96.54 184.91 96.88 183.33 97.23 181.67C97.58 180.02 97.95 178.3 98.32 176.53C98.65 174.99 98.98 173.41 99.32 171.81C99.68 170.1 100.04 168.38 100.41 166.67C100.74 165.09 101.08 163.5 101.4 161.95C101.77 160.2 102.14 158.48 102.49 156.81C102.83 155.19 103.17 153.6 103.48 152.09C105.33 143.33 106.68 136.82 106.64 136.78" stroke="#000000" stroke-opacity="1.000000" stroke-width="1.000000"/>
		<path d="M115.8 142.52C116.12 142.72 117.44 156.37 117.44 156.37L104.9 169.73L108.42 177.85L95.38 190.34" stroke="#000000" stroke-opacity="1.000000" stroke-width="1.000000"/>
		<path d="M103.48 152.09C103.17 153.6 102.83 155.19 102.49 156.81L71.68 156.81C71.33 155.19 71 153.6 70.68 152.09L103.48 152.09Z" fill="#000000" fill-opacity="1.000000" fill-rule="nonzero"/>
		<path d="M101.4 161.95C101.08 163.5 100.74 165.09 100.41 166.67L73.76 166.67C73.43 165.09 73.09 163.5 72.76 161.95L101.4 161.95Z" fill="#000000" fill-opacity="1.000000" fill-rule="nonzero"/>
		<path d="M99.32 171.81C98.98 173.41 98.65 174.99 98.32 176.53L75.85 176.53C75.53 174.99 75.19 173.41 74.85 171.81L99.32 171.81Z" fill="#000000" fill-opacity="1.000000" fill-rule="nonzero"/>
		<path d="M97.23 181.67C96.88 183.33 96.54 184.91 96.22 186.39L77.95 186.39C77.63 184.91 77.3 183.33 76.94 181.67L97.23 181.67Z" fill="#000000" fill-opacity="1.000000" fill-rule="nonzero"/>
		<path d="M95.13 191.53C94.7 193.56 94.36 195.18 94.13 196.25L80.04 196.25C79.81 195.18 79.47 193.56 79.04 191.53L95.13 191.53Z" fill="#000000" fill-opacity="1.000000" fill-rule="nonzero"/>
		<path d="M68.42 50.99C60.6 50.99 54.27 45.79 54.27 39.37C54.27 32.96 60.6 27.76 68.42 27.76C76.23 27.76 82.56 32.96 82.56 39.37C82.56 45.79 76.23 50.99 68.42 50.99Z" stroke="#FFFFFF" stroke-opacity="1.000000" stroke-width="2.000000"/>
		<path d="M105.52 50.99C97.71 50.99 91.37 45.79 91.37 39.37C91.37 32.96 97.71 27.76 105.52 27.76C113.34 27.76 119.67 32.96 119.67 39.37C119.67 45.79 113.34 50.99 105.52 50.99Z" stroke="#FFFFFF" stroke-opacity="1.000000" stroke-width="2.000000"/>
		<path d="M82.56 39.37C82.56 39.37 86.66 35.72 91.37 39.37" stroke="#FFFFFF" stroke-opacity="1.000000" stroke-width="2.000000"/>
		<path d="M99.86 119.5C92.01 122.16 79.83 126.13 74.21 127.96L75.35 115.92C77.82 117.44 80.58 118.49 83.69 118.92C84.75 119.07 85.86 119.15 87.01 119.15C87.01 119.15 91.57 119.15 97.26 116.26C97.97 115.9 98.7 115.5 99.44 115.04L99.86 119.5Z" fill="#000000" fill-opacity="1.000000" fill-rule="nonzero"/>
	</g>
</svg>
