<svg width="17.999512" height="18.000000" viewBox="0 0 17.9995 18" fill="none" xmlns="http://www.w3.org/2000/svg" xmlns:xlink="http://www.w3.org/1999/xlink">
	<desc>
			Created with Pixso.
	</desc>
	<defs/>
	<path d="M13.76 3.21C13.18 3.21 12.7 3.68 12.7 4.26C12.7 4.85 13.18 5.32 13.76 5.32C14.34 5.32 14.82 4.85 14.82 4.26C14.82 3.68 14.34 3.21 13.76 3.21Z" fill="#FFFFFF" fill-opacity="1.000000" fill-rule="nonzero"/>
	<path d="M9.07 11.83C7.5 11.83 6.23 10.56 6.23 9C6.23 7.43 7.5 6.16 9.07 6.16C10.63 6.16 11.91 7.43 11.91 9C11.91 10.56 10.63 11.83 9.07 11.83ZM9.07 4.56C6.62 4.56 4.64 6.55 4.64 9C4.64 11.44 6.62 13.43 9.07 13.43C11.51 13.43 13.5 11.44 13.5 9C13.5 6.55 11.51 4.56 9.07 4.56Z" fill="#FFFFFF" fill-opacity="1.000000" fill-rule="nonzero"/>
	<path d="M5.4 1.69C3.35 1.69 1.69 3.35 1.69 5.4L1.69 12.59C1.69 14.64 3.35 16.3 5.4 16.3L12.59 16.3C14.64 16.3 16.3 14.64 16.3 12.59L16.3 5.4C16.3 3.35 14.64 1.69 12.59 1.69L5.4 1.69ZM12.59 18L5.4 18C2.42 18 0 15.57 0 12.59L0 5.4C0 2.42 2.42 0 5.4 0L12.59 0C15.57 0 17.99 2.42 17.99 5.4L17.99 12.59C17.99 15.57 15.57 18 12.59 18Z" fill="#FFFFFF" fill-opacity="1.000000" fill-rule="nonzero"/>
</svg>
