<svg width="210.851807" height="45.000488" viewBox="0 0 210.852 45.0005" fill="none" xmlns="http://www.w3.org/2000/svg" xmlns:xlink="http://www.w3.org/1999/xlink">
	<desc>
			Created with Pixso.
	</desc>
	<defs/>
	<path d="M210.85 20.3L210.85 16.58L206.24 16.58L206.24 10.81L206.08 10.87L201.75 12.2L201.64 12.2L201.64 16.58L194.81 16.58L194.81 14.14C194.81 13.03 195.09 12.15 195.59 11.59C196.09 11.04 196.81 10.7 197.7 10.7C198.36 10.7 199.03 10.87 199.69 11.15L199.86 11.2L199.86 7.32L199.81 7.26C199.19 7.04 198.31 6.93 197.25 6.93C195.92 6.93 194.7 7.21 193.65 7.82C192.59 8.37 191.76 9.2 191.15 10.26C190.54 11.31 190.26 12.53 190.26 13.87L190.26 16.53L187.04 16.53L187.04 20.25L190.26 20.25L190.26 35.89L194.87 35.89L194.87 20.25L201.69 20.25L201.69 30.23C201.69 34.34 203.63 36.39 207.41 36.39C208.02 36.39 208.68 36.34 209.35 36.17C210.02 36.01 210.51 35.89 210.79 35.73L210.85 35.67L210.85 31.95L210.68 32.07C210.4 32.23 210.13 32.34 209.74 32.45C209.35 32.56 209.07 32.62 208.85 32.62C207.96 32.62 207.3 32.4 206.91 31.9C206.52 31.4 206.3 30.57 206.3 29.4L206.3 20.3L210.85 20.3ZM176.78 32.62C175.11 32.62 173.78 32.07 172.84 30.96C171.9 29.85 171.45 28.29 171.45 26.29C171.45 24.24 171.95 22.63 172.84 21.52C173.78 20.41 175.06 19.86 176.72 19.86C178.33 19.86 179.61 20.41 180.5 21.47C181.38 22.52 181.88 24.13 181.88 26.18C181.88 28.29 181.44 29.9 180.61 30.96C179.72 32.12 178.44 32.62 176.78 32.62ZM176.94 16.14C173.78 16.14 171.23 17.08 169.4 18.92C167.57 20.75 166.68 23.3 166.68 26.52C166.68 29.57 167.57 31.95 169.34 33.73C171.12 35.51 173.5 36.39 176.45 36.39C179.55 36.39 181.99 35.45 183.82 33.56C185.66 31.68 186.54 29.18 186.54 26.07C186.54 23.02 185.71 20.52 183.99 18.8C182.33 17.03 180 16.14 176.94 16.14ZM159.3 16.14C157.14 16.14 155.36 16.7 153.97 17.81C152.59 18.92 151.92 20.36 151.92 22.08C151.92 22.97 152.09 23.8 152.36 24.46C152.64 25.13 153.14 25.74 153.75 26.24C154.36 26.74 155.3 27.29 156.53 27.79C157.58 28.24 158.36 28.57 158.86 28.9C159.35 29.18 159.69 29.46 159.85 29.74C160.02 30.01 160.13 30.4 160.13 30.84C160.13 32.12 159.13 32.79 157.14 32.79C156.41 32.79 155.53 32.62 154.64 32.34C153.7 32.01 152.86 31.62 152.09 31.01L151.92 30.9L151.92 35.34L151.97 35.39C152.64 35.67 153.47 35.95 154.42 36.17C155.36 36.39 156.25 36.45 157.02 36.45C159.35 36.45 161.3 35.89 162.63 34.78C164.02 33.67 164.74 32.18 164.74 30.4C164.74 29.12 164.35 27.96 163.63 27.07C162.91 26.18 161.57 25.35 159.8 24.63C158.36 24.08 157.47 23.58 157.08 23.19C156.69 22.85 156.53 22.36 156.53 21.69C156.53 21.13 156.75 20.69 157.25 20.3C157.75 19.91 158.36 19.75 159.19 19.75C159.97 19.75 160.74 19.86 161.52 20.08C162.3 20.3 162.96 20.64 163.57 21.02L163.74 21.13L163.74 16.92L163.68 16.86C163.13 16.64 162.46 16.42 161.63 16.31C160.74 16.25 159.97 16.14 159.3 16.14ZM139.88 32.62C138.21 32.62 136.88 32.07 135.94 30.96C135 29.85 134.55 28.29 134.55 26.29C134.55 24.24 135.05 22.63 135.94 21.52C136.88 20.41 138.16 19.86 139.82 19.86C141.43 19.86 142.71 20.41 143.6 21.47C144.48 22.52 144.98 24.13 144.98 26.18C144.98 28.29 144.54 29.9 143.71 30.96C142.88 32.12 141.6 32.62 139.88 32.62ZM140.1 16.14C136.94 16.14 134.39 17.08 132.55 18.92C130.72 20.75 129.84 23.3 129.84 26.52C129.84 29.57 130.72 31.95 132.5 33.73C134.27 35.51 136.66 36.39 139.6 36.39C142.71 36.39 145.15 35.45 146.98 33.56C148.81 31.68 149.7 29.18 149.7 26.07C149.7 23.02 148.87 20.52 147.15 18.8C145.48 17.03 143.1 16.14 140.1 16.14ZM122.84 19.97L122.84 16.64L118.29 16.64L118.29 35.95L122.84 35.95L122.84 26.07C122.84 24.41 123.23 23.02 123.95 21.97C124.68 20.91 125.67 20.41 126.89 20.41C127.28 20.41 127.78 20.47 128.28 20.64C128.78 20.75 129.11 20.91 129.34 21.08L129.5 21.19L129.5 16.58L129.45 16.53C129 16.36 128.45 16.25 127.67 16.25C126.51 16.25 125.51 16.64 124.62 17.36C123.9 18.03 123.34 18.86 122.84 19.97ZM110.19 16.14C108.08 16.14 106.25 16.58 104.64 17.47C103.04 18.36 101.81 19.64 100.98 21.25C100.15 22.85 99.71 24.74 99.71 26.79C99.71 28.63 100.09 30.29 100.93 31.79C101.76 33.29 102.87 34.45 104.31 35.23C105.75 36.01 107.42 36.45 109.31 36.45C111.47 36.45 113.3 36.01 114.8 35.17L114.85 35.12L114.85 30.96L114.69 31.12C114.02 31.62 113.24 32.01 112.47 32.29C111.69 32.56 110.91 32.73 110.3 32.73C108.53 32.73 107.09 32.18 106.03 31.07C104.98 29.96 104.48 28.4 104.48 26.46C104.48 24.52 105.03 22.91 106.14 21.74C107.25 20.58 108.64 19.97 110.41 19.97C111.91 19.97 113.36 20.47 114.74 21.47L114.91 21.58L114.91 17.19L114.85 17.14C114.35 16.86 113.63 16.58 112.75 16.42C111.86 16.25 110.97 16.14 110.19 16.14ZM96.6 16.64L92.05 16.64L92.05 35.95L96.6 35.95L96.6 16.64ZM94.38 8.37C93.66 8.37 92.99 8.65 92.44 9.15C91.88 9.65 91.6 10.31 91.6 11.04C91.6 11.76 91.88 12.42 92.38 12.92C92.94 13.42 93.55 13.64 94.32 13.64C95.1 13.64 95.77 13.42 96.27 12.92C96.82 12.42 97.1 11.81 97.1 11.04C97.1 10.31 96.82 9.7 96.32 9.15C95.82 8.65 95.16 8.37 94.38 8.37ZM83.06 15.2L83.06 35.95L87.72 35.95L87.72 8.98L81.28 8.98L73.13 29.01L65.19 8.98L58.53 8.98L58.53 35.95L62.92 35.95L62.92 15.2L63.08 15.2L71.46 35.95L74.74 35.95L82.95 15.2L83.06 15.2Z" fill="#706D6E" fill-opacity="1.000000" fill-rule="nonzero"/>
	<path d="M21.36 21.36L0 21.36L0 0L21.36 0L21.36 21.36Z" fill="#F1511B" fill-opacity="1.000000" fill-rule="nonzero"/>
	<path d="M44.99 21.36L23.63 21.36L23.63 0L44.99 0L44.99 21.36Z" fill="#80CC28" fill-opacity="1.000000" fill-rule="nonzero"/>
	<path d="M21.36 45L0 45L0 23.58L21.36 23.58L21.36 45Z" fill="#00ADEF" fill-opacity="1.000000" fill-rule="nonzero"/>
	<path d="M44.99 45L23.63 45L23.63 23.58L44.99 23.58L44.99 45Z" fill="#FBBC09" fill-opacity="1.000000" fill-rule="nonzero"/>
</svg>
