<svg width="166.819092" height="50.000000" viewBox="0 0 166.819 50" fill="none" xmlns="http://www.w3.org/2000/svg" xmlns:xlink="http://www.w3.org/1999/xlink">
	<desc>
			Created with Pixso.
	</desc>
	<defs/>
	<path d="M25 0C11.19 0 0 11.19 0 25C0 38.8 11.19 50 25 50C38.8 50 50 38.8 50 25C50.04 11.19 38.84 0 25 0ZM36.47 36.06C36.01 36.79 35.05 37.02 34.32 36.56C28.42 32.95 21.06 32.17 12.34 34.14C11.51 34.32 10.64 33.82 10.46 32.95C10.28 32.12 10.78 31.26 11.65 31.07C21.2 28.88 29.34 29.84 35.96 33.86C36.7 34.36 36.92 35.32 36.47 36.06ZM39.53 29.25C38.98 30.16 37.75 30.43 36.83 29.89C30.11 25.77 19.88 24.54 11.92 26.96C10.87 27.28 9.82 26.69 9.5 25.68C9.18 24.63 9.78 23.58 10.78 23.26C19.88 20.52 31.16 21.84 38.89 26.59C39.8 27.14 40.12 28.33 39.53 29.25ZM39.8 22.16C31.76 17.36 18.46 16.95 10.74 19.28C9.5 19.65 8.18 18.96 7.81 17.73C7.44 16.49 8.13 15.17 9.36 14.8C18.19 12.11 32.9 12.65 42.18 18.14C43.28 18.78 43.64 20.24 43 21.34C42.36 22.44 40.9 22.8 39.8 22.16ZM68.05 23.08C63.71 22.02 62.98 21.34 62.98 19.78C62.98 18.37 64.35 17.36 66.36 17.36C68.32 17.36 70.24 18.09 72.25 19.6C72.3 19.65 72.39 19.65 72.48 19.65C72.57 19.65 72.62 19.6 72.66 19.51L74.77 16.54C74.86 16.4 74.81 16.27 74.72 16.17C72.3 14.25 69.6 13.29 66.4 13.29C61.74 13.29 58.5 16.08 58.5 20.1C58.5 24.4 61.33 25.91 66.17 27.1C70.29 28.06 71.02 28.83 71.02 30.25C71.02 31.85 69.6 32.81 67.32 32.81C64.8 32.81 62.75 31.94 60.42 29.98C60.37 29.93 60.28 29.89 60.19 29.89C60.1 29.89 60.05 29.93 60 29.98L57.63 32.81C57.54 32.95 57.54 33.08 57.67 33.22C60.37 35.6 63.66 36.88 67.18 36.88C72.21 36.88 75.45 34.14 75.45 29.89C75.45 26.32 73.3 24.36 68.05 23.08ZM86.83 18.83C84.64 18.83 82.86 19.69 81.39 21.43L81.39 19.46C81.39 19.33 81.26 19.19 81.12 19.19L77.23 19.19C77.1 19.19 76.96 19.33 76.96 19.46L76.96 41.45C76.96 41.59 77.1 41.72 77.23 41.72L81.12 41.72C81.26 41.72 81.39 41.59 81.39 41.45L81.39 34.5C82.86 36.15 84.64 36.97 86.83 36.97C90.9 36.97 94.97 33.86 94.97 27.92C94.97 21.93 90.9 18.83 86.83 18.83ZM90.49 27.87C90.49 30.89 88.61 33.04 85.96 33.04C83.31 33.04 81.3 30.85 81.3 27.87C81.3 24.95 83.31 22.71 85.96 22.71C88.57 22.76 90.49 24.9 90.49 27.87ZM105.48 18.83C100.27 18.83 96.2 22.85 96.2 27.97C96.2 33.04 100.27 37.02 105.43 37.02C110.64 37.02 114.76 32.99 114.76 27.92C114.76 22.8 110.69 18.83 105.48 18.83ZM105.48 33.08C102.69 33.08 100.64 30.85 100.64 27.92C100.64 24.95 102.65 22.8 105.43 22.8C108.22 22.8 110.32 25.04 110.32 27.97C110.32 30.94 108.27 33.08 105.48 33.08ZM125.86 19.14L121.61 19.14L121.61 14.8C121.61 14.67 121.48 14.53 121.34 14.53L117.45 14.53C117.32 14.53 117.18 14.67 117.18 14.8L117.18 19.14L115.31 19.14C115.17 19.14 115.03 19.28 115.03 19.42L115.03 22.76C115.03 22.89 115.17 23.03 115.31 23.03L117.18 23.03L117.18 31.62C117.18 35.1 118.92 36.88 122.34 36.88C123.72 36.88 124.86 36.6 125.96 35.96C126.05 35.92 126.09 35.83 126.09 35.74L126.09 32.58C126.09 32.49 126.05 32.4 125.96 32.35C125.86 32.31 125.77 32.31 125.68 32.35C124.95 32.72 124.22 32.9 123.4 32.9C122.16 32.9 121.61 32.35 121.61 31.07L121.61 23.08L125.86 23.08C126 23.08 126.14 22.94 126.14 22.8L126.14 19.46C126.18 19.28 126.05 19.19 125.86 19.14ZM140.72 19.19L140.72 18.64C140.72 17.09 141.31 16.36 142.68 16.36C143.5 16.36 144.14 16.54 144.88 16.77C144.97 16.81 145.06 16.77 145.15 16.72C145.24 16.68 145.29 16.59 145.29 16.49L145.29 13.25C145.29 13.11 145.2 13.02 145.11 12.97C144.33 12.75 143.37 12.52 141.91 12.52C138.34 12.52 136.47 14.53 136.47 18.32L136.47 19.14L134.59 19.14C134.46 19.14 134.32 19.28 134.32 19.42L134.32 22.76C134.32 22.89 134.46 23.03 134.59 23.03L136.47 23.03L136.47 36.28C136.47 36.42 136.6 36.56 136.74 36.56L140.63 36.56C140.76 36.56 140.9 36.42 140.9 36.28L140.9 23.03L144.51 23.03L150.04 36.28C149.4 37.65 148.81 37.97 147.94 37.97C147.25 37.97 146.52 37.79 145.79 37.38C145.7 37.34 145.65 37.34 145.56 37.38C145.47 37.43 145.42 37.47 145.38 37.52L144.05 40.4C144.01 40.53 144.05 40.67 144.19 40.76C145.56 41.49 146.8 41.81 148.3 41.81C151.14 41.81 152.74 40.49 154.11 36.92L160.83 19.6C160.87 19.51 160.87 19.42 160.78 19.33C160.74 19.24 160.64 19.19 160.55 19.19L156.53 19.19C156.39 19.19 156.3 19.28 156.26 19.37L152.14 31.17L147.62 19.37C147.57 19.28 147.48 19.19 147.34 19.19L140.72 19.19ZM132.13 19.14L128.24 19.14C128.1 19.14 127.97 19.28 127.97 19.42L127.97 36.28C127.97 36.42 128.1 36.56 128.24 36.56L132.13 36.56C132.26 36.56 132.4 36.42 132.4 36.28L132.4 19.42C132.4 19.28 132.26 19.14 132.13 19.14ZM130.21 11.47C128.65 11.47 127.42 12.7 127.42 14.25C127.42 15.81 128.65 17.04 130.21 17.04C131.76 17.04 132.99 15.81 132.99 14.25C132.95 12.75 131.71 11.47 130.21 11.47ZM164.07 24.58C162.56 24.58 161.33 23.35 161.33 21.84C161.33 20.33 162.52 19.1 164.07 19.1C165.58 19.1 166.81 20.33 166.81 21.84C166.81 23.35 165.63 24.58 164.07 24.58ZM164.07 19.42C162.66 19.42 161.6 20.52 161.6 21.89C161.6 23.26 162.66 24.36 164.03 24.36C165.44 24.36 166.49 23.26 166.49 21.89C166.54 20.52 165.49 19.42 164.07 19.42ZM164.71 22.12L165.49 23.21L164.85 23.21L164.16 22.21L163.57 22.21L163.57 23.21L163.02 23.21L163.02 20.33L164.3 20.33C164.99 20.33 165.4 20.65 165.4 21.25C165.35 21.75 165.08 22.02 164.71 22.12ZM164.26 20.84L163.57 20.84L163.57 21.75L164.26 21.75C164.62 21.75 164.8 21.57 164.8 21.29C164.8 21.02 164.58 20.84 164.26 20.84Z" fill="#1ED760" fill-opacity="1.000000" fill-rule="nonzero"/>
</svg>
