<svg width="160.291016" height="50.000000" viewBox="0 0 160.291 50" fill="none" xmlns="http://www.w3.org/2000/svg" xmlns:xlink="http://www.w3.org/1999/xlink">
	<desc>
			Created with Pixso.
	</desc>
	<defs/>
	<path d="M84.45 12.6C84.45 14.4 83 15.86 81.2 15.86C79.39 15.86 77.94 14.41 77.94 12.6C77.94 10.8 79.35 9.35 81.2 9.35C83.04 9.4 84.45 10.85 84.45 12.6ZM71 19.15C71 19.46 71 19.94 71 19.94C71 19.94 69.47 17.92 66.12 17.92C60.68 17.92 56.41 22.09 56.41 27.85C56.41 33.56 60.63 37.78 66.12 37.78C69.47 37.78 71 35.71 71 35.71L71 36.55C71 36.94 71.31 37.25 71.71 37.25L75.75 37.25L75.75 18.45C75.75 18.45 72.06 18.45 71.71 18.45C71.31 18.45 71 18.8 71 19.15ZM71 31.23C70.25 32.33 68.76 33.3 66.96 33.3C63.75 33.3 61.29 31.28 61.29 27.9C61.29 24.47 63.75 22.49 66.96 22.49C68.72 22.49 70.3 23.5 71 24.56L71 31.23ZM78.78 18.45L83.57 18.45L83.57 37.3L78.78 37.3L78.78 18.45ZM150.62 17.96C147.32 17.96 145.74 19.98 145.74 19.98L145.74 9.4L140.95 9.4L140.95 37.3C140.95 37.3 144.64 37.3 144.99 37.3C145.39 37.3 145.7 36.95 145.7 36.59L145.7 35.76C145.7 35.76 147.23 37.82 150.58 37.82C156.02 37.82 160.29 33.61 160.29 27.89C160.29 22.14 156.02 17.96 150.62 17.96ZM149.83 33.21C147.98 33.21 146.53 32.24 145.78 31.15L145.78 24.42C146.53 23.41 148.16 22.36 149.83 22.36C153.04 22.36 155.5 24.38 155.5 27.76C155.5 31.23 153.04 33.21 149.83 33.21ZM138.45 26.14L138.45 37.34L133.66 37.34L133.66 26.67C133.66 23.55 132.64 22.32 129.97 22.32C128.52 22.32 127.02 23.06 126.06 24.16L126.06 37.3L121.27 37.3L121.27 18.45L125.09 18.45C125.48 18.45 125.79 18.8 125.79 19.15L125.79 19.94C127.2 18.49 129.05 17.92 130.89 17.92C133 17.92 134.75 18.53 136.16 19.72C137.79 21.17 138.45 22.97 138.45 26.14ZM109.54 17.96C106.24 17.96 104.66 19.98 104.66 19.98L104.66 9.4L99.87 9.4L99.87 37.3C99.87 37.3 103.56 37.3 103.91 37.3C104.3 37.3 104.61 36.95 104.61 36.59L104.61 35.76C104.61 35.76 106.15 37.82 109.49 37.82C114.94 37.82 119.2 33.61 119.2 27.89C119.25 22.14 114.99 17.96 109.54 17.96ZM108.75 33.21C106.9 33.21 105.45 32.24 104.7 31.15L104.7 24.42C105.45 23.41 107.08 22.36 108.75 22.36C111.96 22.36 114.42 24.38 114.42 27.76C114.41 31.23 111.95 33.21 108.75 33.21ZM95.69 17.96C97.14 17.96 97.89 18.22 97.89 18.22L97.89 22.66C97.89 22.66 93.89 21.3 91.39 24.16L91.39 37.34L86.6 37.34L86.6 18.44C86.6 18.44 90.29 18.44 90.64 18.44C91.04 18.44 91.35 18.79 91.35 19.15L91.35 19.94C92.27 18.89 94.2 17.96 95.69 17.96ZM45.74 35.58C45.48 34.97 45.26 34.31 44.99 33.78C44.6 32.86 44.2 32.02 43.85 31.23L43.8 31.19C40.33 23.68 36.64 16.07 32.73 8.56L32.6 8.25C32.2 7.51 31.81 6.72 31.41 5.88C30.93 4.96 30.4 4.04 29.61 3.11C28.03 1.09 25.7 0 23.24 0C20.74 0 18.49 1.09 16.83 2.98C16.08 3.91 15.51 4.83 15.03 5.75C14.63 6.54 14.23 7.33 13.84 8.12L13.71 8.43C9.84 15.94 6.11 23.54 2.63 31.06L2.59 31.15C2.24 31.94 1.84 32.81 1.45 33.69C1.19 34.26 0.97 34.84 0.7 35.49C0.04 37.34 -0.14 39.1 0.09 40.9C0.66 44.68 3.16 47.79 6.59 49.2C7.91 49.77 9.22 50 10.63 50C11.03 50 11.55 49.95 11.95 49.91C13.62 49.69 15.29 49.16 16.96 48.19C19.02 47.05 20.96 45.38 23.15 42.97C25.35 45.38 27.37 47.01 29.35 48.19C31.02 49.16 32.69 49.69 34.36 49.91C34.75 49.95 35.28 50 35.68 50C37.08 50 38.49 49.73 39.72 49.2C43.23 47.8 45.69 44.59 46.22 40.9C46.61 39.18 46.4 37.43 45.74 35.58ZM23.15 38.17C20.43 34.75 18.71 31.54 18.1 28.86C17.84 27.72 17.79 26.71 17.97 25.79C18.06 24.99 18.36 24.29 18.76 23.68C19.73 22.31 21.31 21.48 23.15 21.48C25 21.48 26.67 22.27 27.55 23.68C27.94 24.29 28.25 24.99 28.34 25.79C28.47 26.71 28.43 27.72 28.21 28.86C27.63 31.54 25.88 34.75 23.15 38.17ZM43.15 40.55C42.8 43.14 41.04 45.42 38.57 46.39C37.39 46.87 36.07 47.05 34.75 46.87C33.48 46.74 32.25 46.3 30.93 45.56C29.13 44.54 27.33 43.01 25.22 40.68C28.51 36.64 30.53 32.9 31.28 29.6C31.63 28.07 31.67 26.66 31.54 25.34C31.32 24.07 30.88 22.93 30.18 21.92C28.64 19.67 26.01 18.36 23.11 18.36C20.2 18.36 17.62 19.72 16.03 21.92C15.33 22.93 14.89 24.07 14.67 25.34C14.45 26.66 14.54 28.11 14.93 29.6C15.68 32.9 17.74 36.68 21 40.72C18.93 43.01 17.09 44.59 15.28 45.6C13.96 46.35 12.73 46.74 11.46 46.92C10.1 47.05 8.82 46.87 7.64 46.44C5.18 45.42 3.42 43.18 3.07 40.59C2.94 39.32 3.02 38.09 3.51 36.68C3.64 36.2 3.9 35.67 4.17 35.1C4.52 34.31 4.91 33.43 5.31 32.59L5.35 32.51C8.82 25.04 12.52 17.44 16.38 10.01L16.51 9.7C16.91 8.95 17.31 8.17 17.7 7.42C18.09 6.63 18.54 5.88 19.11 5.22C20.16 4.03 21.57 3.38 23.1 3.38C24.64 3.38 26.05 4.04 27.1 5.22C27.67 5.88 28.11 6.63 28.51 7.42C28.9 8.17 29.3 8.95 29.69 9.7L29.82 10.01C33.65 17.48 37.34 25.08 40.81 32.55L40.81 32.59C41.2 33.39 41.56 34.31 41.95 35.1C42.22 35.71 42.43 36.2 42.61 36.68C43.19 38 43.36 39.23 43.15 40.55Z" fill="#FF5A5F" fill-opacity="1.000000" fill-rule="nonzero"/>
</svg>
